<svg version="1.0" xmlns="http://www.w3.org/2000/svg" width="933.333" height="933.333" viewBox="0 0 700 700"><g><path d="M338.1 10.2c-14.3 1.6-28.3 6.6-40.6 14.5-10.6 6.8-263.2 259.3-271.1 271C8 322.9 4.6 356.6 17 387.1c7.2 17.6 2.2 12.3 142.4 152.5 83.8 83.8 132.2 131.5 136.1 134 28.4 18.9 64.8 22 95.5 8.2 13.9-6.2 15.6-7.9 149.2-141.7C677.9 402.3 675.4 405 682.5 388.2c11.1-26.4 10.5-53.3-1.7-80.2-6.3-13.9-8-15.7-141.2-148.7C457.4 77.1 408.5 29.1 405 26.8c-21.5-13.7-43.9-19.3-66.9-16.6zM437 218c40.2 39.9 87.5 86.7 105.1 104 17.5 17.4 31.9 32 31.9 32.4 0 .5-49.6 50.5-110.3 111.2L353.5 575.9 312 535l-41.5-41 25.8-25.5 25.8-25.5 17.4 17.2c9.6 9.5 17.9 17.3 18.4 17.3s28.4-27.2 61.9-60.4l61.1-60.5-24.4-24c-13.4-13.3-41.5-41.1-62.5-62-37.9-37.7-38.1-37.8-40.2-36-1.1 1.1-7.6 7.4-14.5 14.1-6.8 6.8-12.6 12.3-12.9 12.3-.3 0-1.5-1-2.8-2.3-3.2-3.1-18.8-17.9-34.9-33.1l-13.6-13 39.2-38.8 39.2-38.8 5.1 5.3c2.9 2.8 38.1 37.8 78.4 77.7z"/></g></svg>