<svg width="358" height="90.709" viewBox="21 21 381 48" xmlns="http://www.w3.org/2000/svg"><g><g><g clip-path="url(#clipPath18)" transform="matrix(1.33333 0 0 -1.33333 0 90.709)"><g><path style="fill:#36aee8;fill-opacity:1;fill-rule:nonzero;stroke:none" d="M185.629 18.92c1.784 1.327 2.726 3.232 2.726 5.51 0 2.301-.877 4.023-2.683 5.264-1.582 1.088-3.66 1.662-5.491 2.168-2.636.73-4.912 1.358-4.912 3.245 0 1.354 1.136 2.72 3.675 2.72 1.669 0 3.094-.64 4.015-1.805.25-.316.63-.498 1.042-.498.23 0 .459.06.662.171l3.147 1.732c-1.714 3.151-4.94 4.956-8.865 4.956-2.44 0-4.664-.705-6.26-1.986-1.678-1.345-2.565-3.208-2.565-5.388 0-2.22.869-3.892 2.658-5.114 1.57-1.07 3.636-1.656 5.459-2.17 2.666-.755 4.968-1.406 4.968-3.295 0-1.775-1.527-2.793-4.188-2.793-2.685 0-4.666 1.245-5.454 3.423l-4.364-2.468c1.625-3.55 5.198-5.584 9.818-5.584 2.605 0 4.953.68 6.611 1.912m26.918 10.775c0 4.478-3.282 7.705-7.626 7.705s-7.626-3.227-7.626-7.705 3.282-7.704 7.626-7.704 7.626 3.226 7.626 7.704m5.212 0c0-7.15-5.405-12.687-11.993-12.687-3.813 0-6.637 1.564-8.47 4.141v-3.01c0-.399-1.168-.722-2.607-.722-1.44 0-2.606.323-2.606.722v29.13a3.76 3.76 0 003.764 3.755h1.448V38.242c1.834 2.576 4.658 4.141 8.471 4.141 6.589 0 11.994-5.537 11.994-12.688m46.294 12.688c-3.306 0-5.888-1.227-7.506-3.73v3.08h-3.764c-.8 0-1.448-.647-1.448-1.444V18.14c0-.399 1.167-.722 2.606-.722 1.439 0 2.606.323 2.606.722v12.4c0 4.935 2.703 6.957 6.154 6.957 3.258 0 5.38-1.95 5.38-5.56V18.138h.001c0-.399 1.167-.722 2.606-.722 1.44 0 2.606.323 2.606.722V32.44c0 6.284-3.86 9.943-9.242 9.943m-127.974 4.885V18.14c0-.399 1.167-.722 2.606-.722 1.44 0 2.606.323 2.606.722v32.885h-1.447a3.761 3.761 0 01-3.765-3.756m21.885-17.308l10.62 11.773h-4.894a3.38 3.38 0 01-2.535-1.144l-8.25-9.353a1.92 1.92 0 01.004-2.548l8.777-9.894c.524-.59 1.947-1.377 4.131-1.377.79 0 1.497.094 1.986.241.553.166.75.408.666.502l-10.505 11.8m-7.673 21.064h1.448V18.14c0-.399-1.168-.722-2.607-.722-1.439 0-2.606.323-2.606.722v29.13a3.76 3.76 0 003.765 3.755M289.854 29.96l10.618 11.773h-4.892a3.381 3.381 0 01-2.536-1.144l-8.25-9.353a1.922 1.922 0 01.004-2.548l8.777-9.894c.524-.59 1.947-1.377 4.131-1.377.79 0 1.497.094 1.986.241.553.166.75.408.666.502l-10.504 11.8m-7.674 21.064h1.448V18.14c0-.399-1.167-.722-2.607-.722-1.439 0-2.606.323-2.606.722v29.13a3.761 3.761 0 003.765 3.755M37.472 29.695c0 4.478-3.282 7.705-7.626 7.705s-7.626-3.227-7.626-7.705 3.282-7.704 7.626-7.704 7.626 3.226 7.626 7.704m3.764 21.33h1.448V18.138c0-.399-1.167-.722-2.606-.722-1.44 0-2.606.323-2.606.722v3.01c-1.835-2.577-4.658-4.14-8.47-4.14-6.589 0-11.995 5.536-11.995 12.686 0 7.151 5.406 12.688 11.994 12.688 3.813 0 6.636-1.565 8.471-4.14v9.025a3.76 3.76 0 003.764 3.756m85.55-21.329c0 4.382-3.282 7.608-7.554 7.608-4.223 0-7.505-3.226-7.505-7.608 0-4.38 3.282-7.608 7.505-7.608 4.272 0 7.553 3.227 7.553 7.608m5.213 0c0-7.15-5.695-12.687-12.766-12.687-7.07 0-12.718 5.537-12.718 12.687 0 7.151 5.647 12.688 12.718 12.688s12.766-5.537 12.766-12.688m108.89 0c0 4.478-3.283 7.705-7.65 7.705-4.32 0-7.603-3.227-7.603-7.705s3.282-7.704 7.602-7.704c4.368 0 7.65 3.226 7.65 7.704m1.448 12.038h3.765V18.14c0-.399-1.168-.722-2.607-.722-1.44 0-2.606.323-2.606.722v3.01c-1.834-2.553-4.682-4.14-8.495-4.14-6.564 0-11.969 5.536-11.969 12.686 0 7.151 5.405 12.688 11.97 12.688 3.812 0 6.66-1.589 8.494-4.14v2.046c0 .797.648 1.444 1.448 1.444m-154.412-2.21a3.378 3.378 0 01-3.17 2.21h-4.898c1.04 0 2.296-1.905 3.013-3.736l7.6-19.42a1.448 1.448 0 011.348-.92h4.03c.596 0 1.24.383 1.35.92 2.742 13.383 8.661 24.468 16.597 26.22-5.164.422-9.313-1.133-12.273-4.004-2.798-2.712-4.817-6.295-8.16-16.04l-5.437 14.77m-21.713-7.83c-.748 4.117-3.765 5.922-6.878 5.922-3.933 0-6.636-2.287-7.336-5.922zm-14.166-4.237c.845-3.756 3.847-5.658 7.594-5.658 2.191 0 4.15.744 5.375 1.844h5.91c-.78-2.282-4.313-6.635-11.204-6.635-7.94 0-13.08 5.49-13.08 12.687 0 7.151 5.14 12.688 12.693 12.688 6.208 0 12.106-4.706 12.106-12.712v-.87c0-.759-.68-1.344-1.44-1.344z"/></g></g></g></g></svg>