<svg width="68" height="35" xmlns="http://www.w3.org/2000/svg"><g fill="none" fill-rule="evenodd"><g fill="#FFF"><g><g><path d="M1.145 18.452H64.34L49.87 32.921a1.042 1.042 0 000 1.483c.407.41 1.075.41 1.483 0l16.268-16.259a.28.28 0 01.026-.032.728.728 0 00.058-.069c.014-.018.03-.037.04-.055.016-.024.032-.048.045-.074.013-.019.024-.043.035-.064.008-.016.016-.029.023-.048l.008-.026c.011-.024.016-.048.024-.072.008-.026.016-.05.021-.076a.665.665 0 00.011-.072.7.7 0 00.01-.08c.003-.023.003-.05.003-.074 0-.026 0-.053-.002-.076l-.01-.08a.665.665 0 00-.012-.071c-.005-.027-.013-.053-.02-.083-.009-.02-.014-.042-.022-.063a.132.132 0 01-.01-.03.302.302 0 00-.027-.05c-.01-.02-.019-.042-.032-.06a.426.426 0 00-.045-.075c-.01-.018-.026-.037-.04-.055a.699.699 0 00-.055-.067c-.01-.01-.019-.024-.03-.034L51.354.399a1.037 1.037 0 00-.742-.31c-.27 0-.538.104-.742.31a1.042 1.042 0 000 1.484v.003l14.47 14.466H1.146a1.05 1.05 0 100 2.1"/></g></g></g></g></svg>