<svg width="90" height="90" xmlns="http://www.w3.org/2000/svg"><g fill="none" fill-rule="evenodd"><g fill="#000"><g><g><path d="M15.825 41.823h11.493v6.48H15.853c.779 13.276 13.12 25.209 25.894 25.815v-11.4h6.549v11.371C61.6 73.576 73.852 60.5 74.023 48.168h-11.34v-6.482h11.462C73.24 27.855 60.46 16.376 48.24 15.882v11.397h-6.547V15.907c-11.777.35-24.882 11.63-25.868 25.916zM41.85 0h6.3v8.78c18.997 3.315 29.846 14.268 33.065 33.07H90v6.3h-8.798C77.895 67.139 66.944 77.993 48.15 81.214V90h-6.3v-8.795C22.854 77.895 11.99 66.956 8.779 48.15H0v-6.3h8.783C12.09 22.84 23.04 11.992 41.85 8.77V0z"/></g><path d="M51.84 45.125c-.057 3.83-3.064 6.749-6.92 6.716-3.93-.035-6.874-3.12-6.767-7.09.104-3.818 3.151-6.68 7.03-6.6 3.825.078 6.713 3.104 6.657 6.974"/></g></g></g></svg>