<svg width="75" height="76" xmlns="http://www.w3.org/2000/svg"><g fill="none" fill-rule="evenodd"><g fill-rule="nonzero" fill="#030104"><g><path d="M28.946 22.401V4.028c0-1.262-.175-2.65-.687-3.396-12.409-3.497-13.837 8.66-13.837 8.66-.398 1.528-.597 4.368-.697 7.299a8.23 8.23 0 011.906-.25c1.801 0 3.383.716 4.458 2.018 1.349 1.638 1.811 3.987 1.438 7.298h3.224c2.01 0 3.702-1.387 4.195-3.256z"/><path d="M67.413 48.684h-2.03c-4.05 0-7.354-2.665-7.354-5.946v-3.256c-1.309.962-3.035 1.558-4.94 1.558h-2.03c-4.056 0-7.36-2.66-7.36-5.941v-1.362c-1.308.961-3.035 1.552-4.94 1.552h-2.03c-4 0-7.26-2.6-7.344-5.82a6.45 6.45 0 01-4.194 1.558h-3.563c-.472 2.088.045 7.729-2.542 9.843-1.468 1.372-3.364-1.032-3.364-1.032 4.14-4.544 3.871-11.812 3.871-11.812 1.04-5.635-2.667-8.68-4.796-8.68-.607 0-1.279.15-1.97.39 0 0-4.09 2.124-5.722 3.607-1.533 1.067-4.463 4.578-4.767 4.939l-.074-.106c-4.036 6.612.945 13.415.945 13.415 6.428 11.32 18.499 26.278 18.499 26.278 5.622 4.853 2.408 7.678 2.408 7.678l42.147.406 2.14-7.273c3.965-7.624 5.552-16.71 6.11-24.41-.841 2.54-3.697 4.414-7.1 4.414z"/><path d="M65.333 42.986h2.03c2.677 0 4.945-1.608 4.945-3.516V17.335c0-1.904-2.268-3.517-4.945-3.517h-2.03c-2.677 0-4.94 1.608-4.94 3.517V39.47c0 1.903 2.263 3.516 4.94 3.516z"/><path d="M36.514 29.163h2.03c2.682 0 4.94-1.608 4.94-3.516V3.517c0-1.904-2.258-3.517-4.94-3.517h-2.03c-2.677 0-4.945 1.613-4.945 3.516v22.136c.005 1.903 2.268 3.51 4.945 3.51z"/><path d="M50.926 35.381h2.03c2.677 0 4.94-1.608 4.94-3.516V9.735c0-1.904-2.263-3.517-4.94-3.517h-2.03c-2.682 0-4.946 1.608-4.946 3.517v22.134c0 1.904 2.264 3.512 4.946 3.512z"/></g></g></g></svg>