<svg width="123" height="71" xmlns="http://www.w3.org/2000/svg" xmlns:xlink="http://www.w3.org/1999/xlink"><defs><polygon id="a" points="0 33.710223 0 0.0861639344 122.895923 0.0861639344 122.895923 33.710223 122.895923 67.334282 0 67.334282 0 33.710223"/></defs><g fill="none" fill-rule="evenodd"><g><g><g transform="translate(0 .095)"><mask id="b" fill="#fff"><use xlink:href="#a"/></mask><path d="M0 27.131c.542-.265.887-.446 1.242-.607C20.446 17.796 39.653 9.074 58.848.328c.683-.31 1.219-.33 1.905-.016 19.231 8.764 38.473 17.506 57.711 26.254.32.146.634.31.957.468-.047.115-.063.215-.097.223-1.974.451-2.336 1.733-2.23 3.605.175 3.064.047 6.145.047 8.879 1.11.905 2.191 1.506 2.875 2.407 1.376 1.81 1.046 4.413-.682 5.982-.647.588-.71 1.066-.523 1.846 1.379 5.738 2.71 11.487 4.085 17.358h-13.433c.596-2.516 1.17-4.985 1.764-7.449.832-3.451 1.701-6.893 2.491-10.354.102-.445-.006-1.123-.295-1.443-2.244-2.482-1.628-5.974 1.45-7.368.891-.403 1.109-.876 1.095-1.779-.054-3.3-.022-6.602-.022-10.091-.557.242-.95.405-1.336.58-17.861 8.112-35.723 16.218-53.571 24.356-.88.402-1.564.41-2.453.004C39.54 45.102 20.477 36.45 1.418 27.789 1.019 27.608.623 27.42 0 27.13" fill="#000" mask="url(#b)"/></g><path d="M90.313 44.644c0 4.387.1 8.582-.068 12.766-.043 1.087-.749 2.274-1.451 3.187-1.996 2.59-4.76 4.249-7.664 5.626-8.49 4.027-17.442 5.346-26.76 4.397-6.067-.618-11.898-2.13-17.224-5.133-2.1-1.183-4.015-2.746-5.848-4.326-1.508-1.3-2.129-3.084-2.079-5.152.09-3.745.026-7.494.026-11.387.516.208.917.352 1.305.528 9.383 4.262 18.77 8.517 28.14 12.809.806.37 1.441.354 2.243-.013 9.335-4.274 18.688-8.51 28.037-12.751.393-.179.798-.328 1.343-.551" fill="#000"/></g></g></g></svg>