<svg width="155" height="31" xmlns="http://www.w3.org/2000/svg"><g fill="none" fill-rule="evenodd"><g><path d="M91.3 12.3l-10.9-11c-1.7-1.7-4.5-1.7-6.1 0l-10.9 11c-1.7 1.7-1.7 4.5 0 6.2l10.9 11c1.7 1.7 4.5 1.7 6.1 0l10.9-11c1.7-1.7 1.7-4.5 0-6.2z" fill="#52D70B"/><polygon fill="#FFF" points="77.5 25.6 73.8 21.9 76.1 19.6 77.7 21.2 83.2 15.7 77.6 10.1 76.3 11.4 74 9.2 77.5 5.7 87.4 15.6"/><g transform="translate(97 7)" fill-rule="nonzero" fill="#FFF"><polygon points="23.2 0.8 20.6 0.8 20.6 16 30 16 30 13.7 23.2 13.7"/><rect x="14.5" y=".8" width="2.6" height="15.2"/><polygon points="35.3 0.8 32.8 0.8 32.8 16 40.9 16 42.2 13.7 35.3 13.7"/><polygon points="11.1 0.9 11.1 0.8 0.7 0.8 0.7 3.1 7.2 3.1 0.3 15.9 0.3 16 11.4 16 11.4 13.7 4.3 13.7"/><polygon points="50.8 0.5 43.8 16 46.5 16 47.7 13.2 47.7 13.2 50.9 5.8 54 13.2 54 13.2 55.2 16 58 16"/></g><g transform="translate(0 7)" fill-rule="nonzero" fill="#FFF"><path d="M22.7.5c-4.4 0-7.6 3.3-7.6 7.9 0 4.5 3.2 7.9 7.6 7.9 4.4 0 7.7-3.3 7.7-7.9-.1-4.5-3.3-7.9-7.7-7.9zm0 13.4c-3 0-5.1-2.3-5.1-5.5s2.1-5.5 5.1-5.5c3 0 5.1 2.3 5.1 5.5-.1 3.2-2.2 5.5-5.1 5.5z"/><path d="M7.6 13.9c-3 0-5-2.3-5-5.5s2-5.5 5-5.5c1.7 0 2.9.7 3.8 1.7L13 2.8C11.6 1.3 10 .5 7.6.5 3.2.5 0 3.9 0 8.4s3.2 7.9 7.6 7.9c2.3 0 4.1-.7 5.5-2.3l-1.6-1.9c-.9 1-2.2 1.8-3.9 1.8z"/><path d="M38.3.8h-4.7V16h4.7c5.2 0 8.2-2.8 8.2-7.6S43.4.8 38.3.8zm0 12.8h-2V3.2h2c3.6 0 5.6 1.9 5.6 5.2 0 3.3-2 5.2-5.6 5.2z"/><polygon points="52.4 13.6 52.4 9.4 58.4 9.4 58.4 7.1 52.4 7.1 52.4 3.2 59.3 3.2 59.3 0.8 49.8 0.8 49.8 16 59.5 16 59.5 13.6"/></g></g></g></svg>