<svg width="92" height="94" xmlns="http://www.w3.org/2000/svg"><g fill="none" fill-rule="evenodd"><g><g><g><g fill="#000"><path d="M32.105 28.777c-5.724 4.733-11.483 9.25-16.966 14.083-10.544 9.295-11.632 22.418-2.84 33.41 9.331 11.668 25.99 15.56 38.02 1.24 4.425-5.269 8.674-10.688 12.995-16.045.145-.18.203-.43.323-.696-1.971-1.63-3.882-3.21-5.89-4.873-4.302 5.335-8.458 10.568-12.7 15.731-6.779 8.25-16.305 8.944-24.23 1.825-7.874-7.07-7.941-17.97-.102-25.079 2.092-1.897 4.328-3.634 6.51-5.43 3.213-2.648 6.435-5.284 9.692-7.956l-4.812-6.21M0 57.55c.305-1.377.561-2.767.923-4.129 1.538-5.773 4.537-10.738 9.024-14.557 9.19-7.819 18.578-15.4 28.042-23.21l12.97 16.205c-2.749 2.247-5.423 4.433-8.095 6.62-5.717 4.678-11.414 9.38-17.156 14.026-3.426 2.772-5.299 6.114-4.07 10.64 1.207 4.446 5.49 8.187 9.887 8.655 3.621.385 6.265-1.403 8.435-4.087 4.57-5.653 9.12-11.323 13.68-16.984 2.37-2.944 4.747-5.884 7.195-8.916L76.898 54.84c-4.51 5.611-8.887 11.073-13.28 16.522-2.785 3.456-5.55 6.93-8.398 10.333-13.538 16.176-33.174 14.063-45.65 1.239C4.598 77.827 1.387 71.767.34 64.623c-.044-.302-.224-.584-.34-.875V57.55"/></g><g fill="#000"><path d="M47.376 17.715l8.596-6.542c-1.852-1.44-3.59-2.793-5.58-4.339 6.23-2.153 12.182-4.21 18.134-6.269l.175.302-8.55 7.111 5.153 3.963-17.682 6.052-.246-.278"/></g><g fill="#000"><path d="M75.213 45.304l6.622-8.514-6.505-2.751 15.862-10.09.33.267-6.463 8.357 5.965 2.54L75.45 45.577c-.08-.09-.158-.182-.237-.273"/></g><path d="M32.105 28.777l4.812 6.21c-3.257 2.672-6.48 5.308-9.693 7.955-2.18 1.797-4.417 3.534-6.51 5.431-7.838 7.11-7.771 18.008.102 25.079 7.926 7.119 17.452 6.426 24.231-1.825 4.242-5.163 8.398-10.396 12.7-15.73l5.89 4.872c-.12.266-.178.516-.323.696-4.321 5.357-8.57 10.776-12.995 16.045-12.03 14.32-28.689 10.428-38.02-1.24-8.792-10.992-7.704-24.115 2.84-33.41 5.483-4.833 11.242-9.35 16.966-14.083" fill="#FFF"/></g></g></g></g></svg>