<svg xmlns="http://www.w3.org/2000/svg" viewBox="0 0 98.4 115.7" style="enable-background:new 0 0 98.4 115.7"><path d="M95.9 58.6c.6-5.1-.5-5.4-.3-7.4.3-3.5 3.1-13.4 2.7-16.9-.1-1.3-2-13.1-19.8-20.1-.1 0-.1-.1-.2-.1-.1-.1-.3-.1-.5-.2-.6-.2-1.4-.3-2.4-.5-3.5-.8-.4-7.3-3.4-7.3-2.9 0 .9 6.5-5.3 6.8h-.5c-5.5-.4-1.2-11.5-4.3-11.5-2.9 0-.5 10.9-6.2 11.3h-.3c-5.2 0-2.2-7.6-5.2-7.6-2.9 0 .1 7.2-6.4 8.1-.2 0-.4 0-.5.1-5.5.4-3.3-6.1-6.3-6.1-2.8 0 0 5.8-6.2 7.3-.6.1-1.2.1-1.7.2-6.3 0-1.9-14.7-5.7-14.7-2.8 0 .9 13.8-4.1 16.8-1.3.4-2.4.9-3.3 1.4C.4 23.3.1 34.3 0 35.7c-.3 3.6 2 14.2 2.2 17.8.1 2.1-.8 2.3-.4 7.7.1 1.4-.8 3.3-1.3 4.4-.8 2 .8 3 1.8 1.1.3-.5 1.5-4.1 2.3-2.2.5 1.1.7 3.5.9 4.7.2.9 1.2 1.4 1.8.6.3-.5.1-1.4.1-2 0-.4-1-4.8.2-4.2 1.2.6 2.1 2.6 2.9 3.8.5.7 1.8 1.1 1.9-.2.1-.6-.4-1.3-.7-1.7-.6-1.1-1.9-2.6-2.1-4-.5-3.7 1.8-1.3 3.6-1.5 1.5-.2 1.2-2.1.4-2.6-1.1-.6-2.4-.4-3.6-.9-2.3-1-3.5-3-3.6-5.7-.5-13.8 4.9-15.7 7-13.8v-.1c1.2 8.2 3.7 17.7 6.3 25.1l-.1-.3c1 4.6-10.9 17.3-11 18.5-.1 2.6 2.7 13.2 2.6 13.8-.1.6-4.7 4.9-5 5.9-.3.8-.1 1.5.7 1.5H21c.7 0 .7-.6.5-1.5-.5-2.1-4.8-5.6-5-6.1-.3-.5-2.5-9.7-2.5-10.8 0-1.3 8.5-8.9 12.2-8.8.1.1.3.2.4.3 4.8 2.9 16.9 5.7 29.3 2.7C61 77 72.8 91.5 72.7 93.1c-.1 1.3-3.2 12.6-3.5 13.2-.4.6-6.3 4.9-6.9 7.5-.3 1.1-.3 1.8.7 1.8h19.5c1 0 1.3-.8.9-1.8-.5-1.2-6.8-6.5-7-7.2-.1-.7 3.7-13.7 3.6-16.9-.1-1.4-11.7-15-10.6-20.8 5.5-8.1 9.3-22.2 10.9-34 2.8-2.6 10.9.7 10.3 13.1-.1 2.6-1.6 4.4-4.3 5-1.4.3-2.9 0-4.2.4-1 .4-1.4 2.1.4 2.5 2.2.4 4.8-1.7 4.2 1.9-.2 1.3-1.7 2.6-2.5 3.6-.3.4-.9 1-.8 1.6.2 1.3 1.6 1.1 2.3.5 1-1 2.1-2.8 3.5-3.2 1.4-.4.3 3.7.2 4.1-.1.5-.3 1.4.1 1.9.6.9 1.9.5 2.1-.3.3-1.1.6-3.4 1.2-4.4 1-1.7 2.3 1.9 2.6 2.4 1.1 1.9 3.1 1.2 2.2-.8-.8-1.3-1.8-3.2-1.7-4.6zM65 41.1c0 2.6-2.4 4-4.4 4-2.5 0-4.5-1.6-4.5-4.2s2-4.2 4.5-4.2c2.4.2 4.4 1.2 4.4 4.4zM28.6 51.2c-2.4.1-4.5-.8-4.7-4-.1-2.6 2.2-4.1 4.2-4.3 2.4-.1 4.5 1.3 4.7 3.9.1 2.6-1.8 4.2-4.2 4.4zm14.2 7.1c-1.7 1.8-4.1 2.4-6.8-.2-2.2-2.1-1.7-5.1-.3-6.6 1.7-1.8 4.5-2 6.7.1s2.1 4.9.4 6.7zm-.4-12.5c-4 0-7.2-2.5-7.2-6.7 0-4.1 3.2-6.7 7.2-6.7s7.2 1.7 7.2 6.9c0 4.1-4 6.5-7.2 6.5zm12 14.3c-3.2 0-5.8-2-5.8-5.4 0-3.3 2.6-5.4 5.8-5.4s5.7 1.4 5.7 5.5c.1 3.5-3.1 5.3-5.7 5.3z"/><path d="M59.8 40.7c0 1.6 2.8 1.6 2.8 0 0-1.7-2.8-1.7-2.8 0z"/><path d="M53.5 54.3c0 2.1 3.6 2.1 3.6 0s-3.6-2.1-3.6 0z"/><path d="M41.2 38.5c0 2.6 4.5 2.6 4.5 0 0-2.7-4.5-2.7-4.5 0z"/><path d="M38.1 56.7c1.4 1.3 3.4-.7 2-2.1-1.4-1.3-3.4.8-2 2.1z"/><path d="M26.3 47.6c.1 1.6 2.9 1.5 2.8-.2-.1-1.6-2.9-1.4-2.8.2z"/></svg>