<svg width="181" height="159" xmlns="http://www.w3.org/2000/svg"><g fill="none" fill-rule="evenodd"><g fill="#000"><g><g><path d="M91.043 81.581c-18.53 0-32.427-.573-32.427-9.161 0-8.59 13.896-7.824 32.427-7.824 18.527 0 32.425-.767 32.425 7.824 0 8.588-13.898 9.161-32.425 9.161M64.82 51.421c.346-1.808 3.771-3.321 7.539-3.321 3.78 0 5.688 1.522 6.126 3.321.588 2.443-1.943 3.325-6.835 3.325-4.585 0-7.242-1.2-6.83-3.325m39.838 1.292c.358-1.474 1.939-2.739 5.057-2.739 3.118 0 5.935 1.246 6.223 2.739.335 1.764-1.851 2.738-5.64 2.738-4.037 0-6.118-.729-5.64-2.738m72.083-22.921c-8.015-12.735-20.263-14.88-20.263-14.88s8.236-.363 7.777-2.038c-.462-1.677-12.612-1.515-12.612-1.515S148.384 1.144 139.29 1.48c-9.091.333-11.536 13.22-11.536 13.22l-14.962 1.524s-2.629-3.86-6.944-3.191c-4.316.672-6.004 1.852-5.544 7.202.46 5.361 2.774 7.371 7.241 6.876 4.469-.508 6.627-6.062 6.627-6.062l13.56-1.648s3.55 9.385 11.404 9.547c7.864.173 14.33-7.706 14.33-7.706s20.035 8.214 18.498 21.178c-1.344 11.323-20.493 19.795-25.328 21.767.17-3.844.414-6.423.732-6.543 1.272-.48 3.508.795 4.629 0 1.123-.795 1.123-13.567 0-14.363-1.12-.795-124.032-5.743-125.155-3.514-1.122 2.242-2.083 11.815 0 12.945 2.081 1.131 5.438.289 6.875 1.582.322.285.568 2.665.743 6.198-4.28-1.769-23.62-10.32-25.044-21.299-1.592-12.351 19.18-20.164 19.18-20.164s6.713 7.496 14.865 7.334c8.153-.154 11.837-9.097 11.837-9.097l14.06 1.572s2.243 5.294 6.876 5.773c4.632.477 7.028-1.436 7.508-6.539.48-5.114-1.276-6.226-5.753-6.865-4.471-.642-7.193 3.034-7.193 3.034L55.28 12.797S52.738.511 43.31.197c-9.436-.318-12.813 9.421-12.813 9.421s-12.601-.164-13.082 1.426c-.478 1.598 8.068 1.955 8.068 1.955s-12.708 2.04-21.012 14.17c-14.726 19.915 9.953 42.398 30.254 45.393.254 13.19-.017 26.868-.688 27.374-1.064.797-6.07-1.121-7.193.155-1.122 1.28-.316 9.499 0 10.532.105.326 12.795 1.042 30.085 1.837 1.829.085 3.717.169 5.642.252-1.739 7.47-3.815 17.353-3.881 18.877-.202 4.433 4.782 14.18 4.782 14.18s-9.468 8.347-10.154 9.967c-.577 1.388-.178 2.581 1.324 2.537l26.254-.028c1.509-.038 1.454-1.016 1.053-2.465-2.279-8.308-12.916-21.408-13.047-24.524-.08-1.762.307-10.801.855-18.229a5670.22 5670.22 0 0038.24 1.473c1.556.053 3.091.105 4.609.154.489 7.066.815 14.967.74 16.602-.13 3.116-10.766 16.216-13.046 24.524-.4 1.449-.456 2.427 1.052 2.465l26.252.028c1.505.044 1.904-1.15 1.33-2.537-.692-1.62-10.156-9.967-10.156-9.967s4.98-9.747 4.785-14.18c-.061-1.377-1.77-9.602-3.38-16.686 18.488.593 32.458.88 32.939.506 1.438-1.11 1.131-12.207-.31-13.643-1.438-1.436-2.732.403-4.808-1.033-1.237-.86-1.684-12.943-1.568-25.001 19.546-3.293 44.417-25.163 30.306-45.94"/></g><path d="M92.001 70.81c-12.39 0-21.684-1.34-21.684 1.33 0 2.674 9.293 3.545 21.684 3.545 12.392 0 21.685-.871 21.685-3.544 0-2.671-9.293-1.331-21.685-1.331"/></g></g></g></svg>