<svg width="209" height="205" xmlns="http://www.w3.org/2000/svg" xmlns:xlink="http://www.w3.org/1999/xlink"><defs><polygon id="a" points="0 206.023376 0 0.999284068 208.458363 0.999284068 208.458363 206.023376 1.0852606e-14 206.023376"/></defs><g fill="none" fill-rule="evenodd"><g><g transform="translate(0 -1)"><mask id="b" fill="#fff"><use xlink:href="#a"/></mask><path d="M35.568 58.544c-1.766-8.624 9.6-13.262 12.232-2.281 1.816 7.554-10.467 10.918-12.232 2.281m-14.452 8.293c-4.698-7.376 3.946-11.385 7.809-5.768 3.852 5.612-4.578 10.835-7.809 5.768M195.14 82.385c-12.127-1.118-20.283-39.829-31.599-55.115-6.154-8.328-29.217-39.856-71.143-18.882-11.757 6.544-10.337 32.56-26.566 33.525-8.574-12.54-26.382-26.028-26.382-26.028-3.538-3.52 2.13-8.364 2.901-9.105.77-.738-9.546.503-10.39 6.404l.222.083a33.821 33.821 0 00-6.887-1.387c-2.697-3.409.635-9.674 1.12-10.722.537-1.156-9.656 4.148-9.233 11.056-1.559.266-3.12.636-4.689 1.158a22.328 22.328 0 00-4.041 1.794c.37-6.288 1.858-11.99 2.18-13.423C11.249-.995-1.978 9.516.255 27.805c-2.412 17.435 13.7 43.87 16.735 52.736.469 1.361 2.866 1.444 6.31.824 1.063 5.743 7.444 8.474 6.99 7.567-.397-.8-2.86-5.208-2.21-8.665 2.656-.71 5.592-1.61 8.586-2.557 0-.09-.017-.179-.015-.28.809 6.118 7.622 9.07 7.154 8.13-.433-.871-3.324-6.029-1.961-9.569l.891-.243c2.611-.802 5.157-1.586 7.491-2.241.69 6.17 7.562 9.129 7.091 8.19-.433-.872-3.311-6.04-1.926-9.582l.856-.234c-.068.07-.116.156-.176.231 1.352-.226 2.495-.329 3.334-.23 7.75.889 19.079 53.532 14.31 59.777-.725.947-3.319 1.633-6.57 2.125-2.994-2.763-1.405-9.101-1.201-10.129.214-1.103-6.738 4.643-5.399 10.848-3.329.261-6.57.4-8.78.467-1.82-3.808.315-9.813.627-10.84.36-1.186-7.111 3.67-6.25 11.19-2.095.268-4.694.663-6.832 1.002-.967-3.372.668-7.916.927-8.755.325-1.04-6.207 3.145-5.703 9.662-2.896.954-5.349 2.3-7.026 4.248-9.241 10.702-15.501 59.18 3.875 64.538 7.454.593-5.841-30.31 5.067-48.478 4.774-7.951 31.005-8.328 35.177-3.866 4.175 4.462 4.175 36.58 15.358 39.85 11.185 3.27-1.347-27.36 0-32.417 1.35-5.054 7-7.137 8.491-14.274 1.49-7.14.3-37.474-13.414-73.464a165.276 165.276 0 00-4.248-10.114c0 .005 2.662-20.72 21.144-17.937 18.483 2.773 20.906 28.066 20.273 34.502-.717 7.125-11.532 18.44-9.35 36.281 1.252 10.233 15.5 21.417 15.5 21.417s-10.528-22.012.599-32.92c2.704-2.65 3.78 20.819 18.885 34.5 11.246 10.185 1.982 35.764 1.982 35.764s12.329-14.943 10.337-33.134c-1.992-18.178-8.262-32.633-1.574-31.774 17.078 2.176 16.088 25.373 16.088 25.373s11.125-26.172 0-49.761c36.369 21.411 36.761-6.344 36.761-6.344s-5.222 3.914-13.318 3.166" fill="#000" mask="url(#b)"/></g></g></g></svg>