<svg viewBox="330.832 86.915 85.917 59.884" xmlns="http://www.w3.org/2000/svg"><path d="M372.739 101c0-7-8.333-7-8.333 0 0 3 8.333 3 8.333 0zm-6.591 0c0-5 4.85-4 4.85 0 0 2-4.85 2-4.85 0z"/><path d="M367.87 101h1.405c0-2-1.405-2-1.405 0"/><path d="M385.035 101c0-7-8.331-7-8.331 0 0 3 8.331 3 8.331 0zm-1.74 0c0 2-4.849 2-4.849 0 0-4 4.849-5 4.849 0z"/><path d="M372.486 112.047c-.888-.028-1.717-.05-2.439-.026-.032.135-.064.269-.088.402a6.043 6.043 0 00-.083 1.037c.01.538.061 1.076.224 1.614.667.134 1.419.223 2.225.279.244-.631.313-1.262.326-1.893a5.755 5.755 0 00-.082-1.037 5.063 5.063 0 00-.083-.376"/><path d="M381.575 101c0-2-1.407-2-1.407 0h1.407"/><path d="M369.321 112.067c-1.126.118-1.841.438-1.841 1.213 0 .77.709 1.277 1.829 1.606.119-.476.163-.951.172-1.426a5.756 5.756 0 00-.083-1.037c-.019-.119-.05-.235-.077-.356"/><path d="M380.453 112.05c-.06.2-.114.403-.146.606-.056.346-.09.692-.082 1.038.011.429.048.857.143 1.284 1.317-.323 2.184-.851 2.184-1.698 0-.829-.83-1.137-2.099-1.23"/><path d="M416.075 103.18c.337-1.297 1.052-4.67-.567-4.802-1.512-.123-1.605 2.915-1.561 4.405-1.006.192-1.792.062-2.817-.358.35-1.408.921-4.471-.62-4.594-1.508-.123-1.606 2.893-1.559 4.39-.983.204-1.804.161-2.854-.196.34-1.329 1.015-4.612-.581-4.741-1.63-.134-1.615 3.387-1.551 4.716 0 0-.989 1.063-1.247 2.68-1.601-.697-4.31-1.566-4.746.248-.457 1.884 2.583 2.539 4.287 2.757-.569 4.298.717 10.18-2.408 15.162-3.284 5.229-13.717 3.56-16.6 2.985 1.036-5.781 10.527-4.401 12.436-4.879 1.963-.488-1.343-34.042-19.858-34.038-24.982.004-19.858 36.855-19.489 38.212.295 1.081 6.365 1.056 8.869 3.997-3.103.769-13.059 2.773-16.529-2.166-3.384-4.811-2.406-10.748-3.206-15.01 1.697-.306 4.694-1.12 4.138-2.978-.527-1.789-3.184-.781-4.75.004-.343-1.605-1.383-2.616-1.383-2.616-.006-1.328-.175-4.846-1.796-4.631-1.586.218-.746 3.455-.332 4.771-1.035.408-1.848.497-2.837.341-.035-1.496-.293-4.501-1.794-4.302-1.535.207-.797 3.233-.375 4.628-1 .469-1.781.636-2.793.5-.034-1.49-.285-4.522-1.792-4.317-1.612.215-.72 3.547-.312 4.823 0 0-.634.828-.517 3.038.07 1.344 4.466 18.541 12.784 21.358 6.342 2.15 18.6-.221 22.557-.541.095 5.842-5.398 5.479-6.257 6.374-.856.897 4.174 7.681 15.325 8.374 11.154.686 18.756-13.075 18.756-13.56 0-.407-8.104-.566-10.354-4.327 4.838.314 15.671 1.565 21.36-.7 8.159-3.251 11.642-20.655 11.647-22.002.004-2.214-.674-3.005-.674-3.005zM385.976 101c0 5-10.213 5-10.213 0 0-7 10.213-10 10.213 0zm-22.509 0c0-10 10.209-7 10.209 0 0 5-10.209 5-10.209 0zm11.254 16.454c-5.714 0-9.997-.255-9.997-4.05 0-3.799 4.283-3.461 9.997-3.461 5.713 0 9.998-.338 9.998 3.461 0 3.795-4.285 4.05-9.998 4.05z"/><path d="M376.084 112.089c-.355.007-.71.013-1.068.013-.612 0-1.217-.015-1.809-.035-.027.121-.057.237-.076.356a5.85 5.85 0 00-.084 1.037c.015.648.084 1.297.345 1.947a45.735 45.735 0 002.496.02c.268-.657.338-1.311.352-1.967a5.758 5.758 0 00-.084-1.037 4.723 4.723 0 00-.072-.334"/><path d="M379.586 112.013c-.835-.012-1.787.027-2.79.057-.027.118-.057.234-.078.353a5.847 5.847 0 00-.082 1.037c.013.644.084 1.289.338 1.934a22.205 22.205 0 002.679-.263c.12-.479.164-.958.176-1.437a5.766 5.766 0 00-.082-1.038 4.955 4.955 0 00-.161-.643"/></svg>