<svg width="134" height="177" xmlns="http://www.w3.org/2000/svg"><g fill="none" fill-rule="evenodd"><g fill="#000"><g><g><path d="M94.734 93.972c-18.527 2.18-27.135-1.105-28.176-9.576-1.04-8.465 6.524-13.73 25.03-16.08 18.502-2.347 27.094.776 28.173 9.575 1.078 8.803-6.502 13.9-25.027 16.08M77.388 112.33c-.883-2.605-.883-2.605 0 0M114.302 5.896C98.237-3.406 23.069-1.484 7.97 15.835-6.373 32.287.295 95.999 14.895 107.22c3.627 2.786 11.505 4.606 21.517 5.523a92.436 92.436 0 00-2.136 7.606c-8.16-3.998-19.617-7.88-22.602-.06-2.88 7.543 11.675 12.063 20.608 14.08-.232 6.931.87 13.96 4.729 19.341-7.55 5.259-18.36 14.552-12.29 21.33 5.848 6.535 17.968-6.785 23.403-13.492 3.303 1.074 7.22 1.674 11.885 1.674 6.213 0 10.825-1.436 14.204-3.841 6.084 6.861 15.501 15.516 20.447 9.993 6.28-7.014-5.518-16.723-13.07-21.865 1.045-4.549 1.067-9.627.542-14.59 8.916-2.007 23.67-6.528 20.774-14.12-3.085-8.086-15.222-3.668-23.409.462a111.492 111.492 0 00-2.109-6.93c22.285-2.058 43.291-6.898 49.76-14.09 14.136-15.709 3.213-83.053-12.846-92.346"/></g><path d="M101.684 75.461c-2.864.317-4.553 2.122-4.224 5.102.332 2.979 2.38 4.367 5.245 4.05 2.863-.32 4.552-2.128 4.223-5.1-.334-2.98-2.379-4.373-5.244-4.052"/><path d="M83.104 76.829c-3.448.424-5.04 2.81-4.636 6.111.41 3.3 2.524 5.232 5.974 4.81 3.448-.42 5.035-2.805 4.63-6.108-.406-3.303-2.523-5.235-5.968-4.813"/></g></g></g></svg>