<svg viewBox="312.752 81.565 40.907 51.908" xmlns="http://www.w3.org/2000/svg"><path d="M339.245 106.677c-1.643-.539-2.871.201-3.399 1.776-.529 1.575.011 2.894 1.654 3.432 1.647.536 2.874-.202 3.403-1.778.528-1.575-.01-2.894-1.658-3.43"/><path d="M349.242 107.728c-1.137-.617-2.228-.382-2.875.8-.645 1.179-.165 2.225.859 2.838 1.028.609 2.252.378 2.899-.803.647-1.18.253-2.217-.883-2.835"/><path d="M332.088 81.583c-.542.555 3.299 3.627 2.56 4.363-.738.735-13.981-.343-18.746 6.797-.753 1.243 5.799-.444 5.551 1.084-.245 1.524-7.187 3.346-8.664 11.842-.443 1.894 3.249-3.178 4.393-2.69 1.139.487-4.616 9.429-.16 12.805.911.69 3.126 1.188 6.027 1.502.075 1.249.141 2.724.156 4.225.063 5.735-1.304 11.02-.799 11.567.255.276 1.783.337 3.319.379 1.706.048 3.422.033 3.411-.631-.02-1.459-2.978-.421-2.853-2.103.126-1.683 2.759-.715 2.869-1.935.111-1.22-3.086-.253-3.086-1.304 0-1.052.178-3.158-.126-6.142-.124-1.211-.352-2.601-.587-3.854 2.516.174 5.361.236 8.239.188.065 1.161.119 2.488.135 3.835.06 5.735-1.305 11.02-.8 11.567.254.276 1.782.337 3.318.379 1.706.048 3.421.033 3.411-.631-.02-1.459-2.977-.421-2.851-2.103.124-1.683 2.758-.715 2.868-1.935.11-1.22-3.086-.253-3.086-1.304 0-1.052.179-3.158-.127-6.142-.12-1.171-.337-2.509-.563-3.728 2.911-.108 5.774-.327 8.287-.653.083 1.314.159 2.916.176 4.55.062 5.735-1.303 11.02-.8 11.567.255.276 1.783.337 3.32.379 1.705.048 3.421.033 3.411-.631-.02-1.459-2.979-.421-2.852-2.103.125-1.682 2.757-.715 2.869-1.935.11-1.22-3.087-.253-3.087-1.304 0-1.052.178-3.158-.126-6.142-.153-1.494-.465-3.261-.751-4.705 3.433-.591 5.855-1.425 6.212-2.493 6.787-20.361-19.925-33.12-20.468-32.561zm10.035 28.976c-.784 2.341-2.603 3.434-5.044 2.618-2.44-.818-3.239-2.785-2.454-5.127.782-2.342 2.606-3.433 5.045-2.617 2.438.818 3.238 2.785 2.453 5.126zm9.016.55c-.998 1.818-2.823 2.163-4.397 1.222-1.578-.937-2.383-2.537-1.386-4.353.996-1.818 2.673-2.172 4.42-1.226 1.75.946 2.357 2.542 1.363 4.357z"/></svg>