<svg id="monster" viewBox="88 48 255 417" xmlns="http://www.w3.org/2000/svg"><style>@keyframes slide-first { 0% { transform: translate(0); } 70% { transform: translate(0); } 100% { transform: translate(200px); } } @keyframes slide-last { 0% { transform: translate(-200px); } 30% { transform: translate(0); } 100% { transform: translate(0); } } @keyframes slide { 0% { transform: translate(-200px); } 30% { transform: translate(0); } 70% { transform: translate(0); } 100% { transform: translate(200px); } } @keyframes show { 0% { opacity: 0; } 90% { opacity: 0; } 100% { opacity: 1; } } .body-happy { #display: none; #animation: hideshow 1s ease infinite; } .icon { transform: translate(-200px); } .icon.icon-js { animation: slide-first 3s ease; } .icon.icon-angular { animation: slide 3s 3s ease; } .icon.icon-github { animation: slide 3s 6s ease; } .icon.icon-codezilla { animation: slide-last 3s 9s ease forwards; } .body-happy { opacity: 0; animation: show 2s 9s forwards; }</style><defs><clipPath id="screen"><path d="M220.002 395.698c-28.536 0-49.808-6.263-49.808-25.46 0-18.678 21.272-11.897 49.808-11.897 28.537 0 50.266-7.009 50.266 11.669s-21.729 25.688-50.266 25.688zm-36.318-72.638c10.376 0 16.291 18.507 0 18.678-11.43.12-10.377-18.678 0-18.678zm67.662-1.65c10.543.125 13.759 19.228-.213 18.772-14.05-.457-11.648-18.912.213-18.772zm63.605-61.649c-16.085 14.528-167.586 31.65-180.039-6.226-12.971-37.875-21.272-146.832-8.301-161.36 17.641-19.716 157.728-29.055 177.444-6.226 19.716 22.311 26.98 159.285 10.896 173.812z"/></clipPath></defs><g class="body"><path class="body-normal" d="M220.002 395.698c-28.536 0-49.808-6.263-49.808-25.46 0-18.678 21.272-11.897 49.808-11.897 28.537 0 50.266-7.009 50.266 11.669s-21.729 25.688-50.266 25.688zm-36.318-72.638c10.376 0 16.291 18.507 0 18.678-11.43.12-10.377-18.678 0-18.678zm67.662-1.65c10.543.125 13.759 19.228-.213 18.772-14.05-.457-11.648-18.912.213-18.772zm63.605-61.649c-16.085 14.528-167.586 31.65-180.039-6.226-12.971-37.875-21.272-146.832-8.301-161.36 17.641-19.716 157.728-29.055 177.444-6.226 19.716 22.311 26.98 159.285 10.896 173.812z" style="fill:rgb(255, 255, 255)"/><g clip-path="url(#screen)"><g class="icon icon-js"><rect id="background" width="112.572" height="112.572" y="117.125" x="165.765" rx="12.465" ry="12.465"/><path id="j" d="M195.365 211.199l8.614-5.214c1.663 2.946 3.174 5.44 6.8 5.44 3.476 0 5.668-1.36 5.668-6.649v-35.97h10.579v36.119c0 10.957-6.423 15.945-15.793 15.945-8.463 0-13.375-4.383-15.868-9.673" style="fill:rgb(255, 255, 255)"/><path id="s" d="M232.772 210.065l8.615-4.988c2.266 3.704 5.214 6.424 10.427 6.424 4.384 0 7.179-2.192 7.179-5.214 0-3.628-2.872-4.912-7.707-7.027l-2.645-1.134c-7.632-3.249-12.696-7.33-12.696-15.944 0-7.935 6.046-13.98 15.492-13.98 6.725 0 11.561 2.342 15.037 8.463l-8.237 5.29c-1.814-3.25-3.778-4.533-6.8-4.533-3.099 0-5.063 1.964-5.063 4.533 0 3.174 1.964 4.458 6.498 6.423l2.645 1.134c8.992 3.854 14.055 7.783 14.055 16.624 0 9.521-7.481 14.734-17.531 14.734-9.824 0-16.171-4.683-19.269-10.805" style="fill:rgb(255, 255, 255)"/></g><g class="icon icon-angular"><polygon points="211.514 179.936 222.419 179.936 222.419 179.936 222.419 179.936 233.324 179.936 222.419 153.7"/><path d="M222.419 112.324l-59.723 21.297 9.109 78.967 50.614 28.033 50.613-28.033 9.109-78.967-59.722-21.297zm37.27 97.891h-13.92l-7.505-18.732h-31.69l-7.505 18.732h-13.921l37.271-83.715 37.27 83.715z"/></g><g class="icon icon-github"><path d="M270.016 147.338c-4.922-8.433-11.598-15.11-20.031-20.032-8.434-4.921-17.641-7.382-27.628-7.382-9.986 0-19.196 2.461-27.628 7.382-8.434 4.922-15.11 11.599-20.032 20.032-4.921 8.433-7.382 17.642-7.382 27.627 0 11.993 3.499 22.779 10.5 32.358 6.999 9.58 16.041 16.209 27.126 19.888 1.29.239 2.245.071 2.866-.501.621-.573.932-1.291.932-2.15 0-.143-.013-1.433-.036-3.87a630.496 630.496 0 01-.037-6.377l-1.648.285c-1.051.193-2.377.274-3.978.251a30.25 30.25 0 01-4.981-.502c-1.72-.309-3.32-1.025-4.802-2.148-1.48-1.123-2.531-2.593-3.152-4.407l-.717-1.649c-.478-1.098-1.23-2.318-2.257-3.655-1.028-1.338-2.067-2.245-3.118-2.723l-.502-.359a5.29 5.29 0 01-.931-.861 3.954 3.954 0 01-.645-1.003c-.143-.336-.024-.61.359-.826.382-.216 1.074-.32 2.078-.32l1.433.214c.955.191 2.138.763 3.548 1.719 1.409.956 2.567 2.198 3.475 3.726 1.1 1.96 2.424 3.453 3.978 4.48 1.552 1.028 3.117 1.54 4.694 1.54 1.576 0 2.938-.119 4.085-.357a14.279 14.279 0 003.225-1.075c.43-3.203 1.6-5.663 3.511-7.383-2.723-.286-5.171-.717-7.346-1.29-2.173-.574-4.419-1.505-6.736-2.797-2.318-1.289-4.241-2.89-5.77-4.801s-2.783-4.42-3.762-7.525c-.979-3.106-1.469-6.689-1.469-10.75 0-5.783 1.888-10.703 5.662-14.765-1.768-4.347-1.601-9.22.502-14.619 1.385-.431 3.44-.108 6.163.967 2.724 1.075 4.718 1.996 5.985 2.76a63.245 63.245 0 013.046 1.935c4.444-1.242 9.031-1.863 13.76-1.863 4.73 0 9.318.621 13.762 1.863l2.723-1.72c1.863-1.147 4.062-2.198 6.593-3.154 2.532-.955 4.469-1.218 5.807-.787 2.149 5.399 2.341 10.272.572 14.619 3.774 4.062 5.663 8.983 5.663 14.764 0 4.061-.492 7.656-1.469 10.786-.979 3.13-2.245 5.637-3.797 7.525-1.554 1.888-3.49 3.477-5.806 4.766-2.318 1.29-4.565 2.222-6.738 2.796-2.174.573-4.622 1.005-7.346 1.291 2.484 2.15 3.726 5.542 3.726 10.176v15.121c0 .859.299 1.576.897 2.15.597.572 1.54.74 2.83.5 11.086-3.678 20.128-10.307 27.128-19.887 6.998-9.579 10.499-20.365 10.499-32.358-.003-9.984-2.465-19.192-7.384-27.625z"/></g><g class="icon icon-codezilla"><path class="st0" d="M274.379 164.872l-40.761-41.135c-6.358-6.358-16.828-6.358-22.812 0l-40.761 41.135c-6.358 6.357-6.358 16.828 0 23.185l40.761 41.136c6.358 6.357 16.828 6.357 22.812 0l40.761-41.136c6.358-6.357 6.358-16.828 0-23.185zm-51.606 49.736l-13.837-13.835 8.601-8.603 5.984 5.984 20.567-20.567-20.941-20.942-4.862 4.86-8.601-8.227 13.089-13.087 37.021 37.021-37.021 37.396z" style="fill:rgb(82, 215, 11)"/></g></g><g><path class="body-happy" d="M317.066 76.209c-32.168-43.582-168.105-23.348-205.98-2.594-37.876 20.754-14.009 170.18-5.189 193.009 8.821 22.829 26.461 23.348 33.725 42.545 7.783 19.197 3.632 84.053 19.197 97.542 3.113 3.114 10.377 5.189 19.197 6.745-2.594 6.226-5.707 18.16-2.075 31.131.519 1.556-.519 3.113-2.075 4.151-3.632 1.556-9.34 5.188-13.49 10.895-1.038 1.557 0 2.595 1.556 2.595 5.189.518 17.122 1.037 29.055 0 1.557 0 3.113-1.557 2.595-3.113-.519-2.595-1.038-6.227-3.632-9.34-1.038-1.556-2.595-3.113-3.113-4.669-2.595-5.189-7.264-17.122-4.151-30.612 20.235 3.113 48.252 3.632 67.968 2.075 3.113 12.453-.519 23.867-2.594 28.537-.519 1.556-2.075 3.632-3.113 5.188-2.075 3.632-2.594 7.264-2.594 9.858 0 1.557 1.556 3.113 3.113 3.113 12.452.519 23.866-1.037 29.055-2.075 1.556 0 2.075-1.557 1.038-2.594-4.67-5.708-10.896-8.302-14.009-9.858-1.557-.519-2.594-2.076-2.076-3.632 2.076-11.415-.518-21.792-3.113-28.537 9.34-1.037 16.084-2.075 18.679-4.15 10.377-7.264 0-42.545 11.414-49.29 11.415-6.226 26.461-1.557 39.432-17.641 13.49-16.084 28.018-219.989-8.82-269.279zm-97.024 319.607c-28.536 0-49.808-6.263-49.808-25.46 0-18.678 21.272-11.897 49.808-11.897 28.537 0 50.266-7.009 50.266 11.669s-21.729 25.688-50.266 25.688zm-36.318-74.945c5.158 0 9.214 6.881 9.987 11.501.782 4.675-1.795-4.955-9.987-4.869-5.424.057-8.037 10.206-8.176 5.773-.155-4.908 2.724-12.405 8.176-12.405zm67.662-1.65c5.58.066 9.108 7.756 9.121 12.742.011 4.433-2.757-6.057-9.334-6.272-6.862-.223-9.799 9.87-9.628 5.323.18-4.762 3.773-11.865 9.841-11.793zm63.605-59.342c-16.085 14.528-167.586 31.65-180.039-6.226-12.971-37.875-21.272-146.832-8.301-161.36 17.641-19.716 157.728-29.055 177.444-6.226 19.716 22.311 26.98 159.285 10.896 173.812z"/><path class="body-normal" d="M317.066 76.209c-32.168-43.582-168.105-23.348-205.98-2.594-37.876 20.754-14.009 170.18-5.189 193.009 8.821 22.829 26.461 23.348 33.725 42.545 7.783 19.197 3.632 84.053 19.197 97.542 3.113 3.114 10.377 5.189 19.197 6.745-2.594 6.226-5.707 18.16-2.075 31.131.519 1.556-.519 3.113-2.075 4.151-3.632 1.556-9.34 5.188-13.49 10.895-1.038 1.557 0 2.595 1.556 2.595 5.189.518 17.122 1.037 29.055 0 1.557 0 3.113-1.557 2.595-3.113-.519-2.595-1.038-6.227-3.632-9.34-1.038-1.556-2.595-3.113-3.113-4.669-2.595-5.189-7.264-17.122-4.151-30.612 20.235 3.113 48.252 3.632 67.968 2.075 3.113 12.453-.519 23.867-2.594 28.537-.519 1.556-2.075 3.632-3.113 5.188-2.075 3.632-2.594 7.264-2.594 9.858 0 1.557 1.556 3.113 3.113 3.113 12.452.519 23.866-1.037 29.055-2.075 1.556 0 2.075-1.557 1.038-2.594-4.67-5.708-10.896-8.302-14.009-9.858-1.557-.519-2.594-2.076-2.076-3.632 2.076-11.415-.518-21.792-3.113-28.537 9.34-1.037 16.084-2.075 18.679-4.15 10.377-7.264 0-42.545 11.414-49.29 11.415-6.226 26.461-1.557 39.432-17.641 13.49-16.084 28.018-219.989-8.82-269.279zm-97.024 319.607c-28.536 0-49.808-6.263-49.808-25.46 0-18.678 21.272-11.897 49.808-11.897 28.537 0 50.266-7.009 50.266 11.669s-21.729 25.688-50.266 25.688zm-36.318-72.638c10.376 0 16.291 18.507 0 18.678-11.43.12-10.377-18.678 0-18.678zm67.662-1.65c10.543.125 13.759 19.228-.213 18.772-14.05-.457-11.648-18.912.213-18.772zm63.605-61.649c-16.085 14.528-167.586 31.65-180.039-6.226-12.971-37.875-21.272-146.832-8.301-161.36 17.641-19.716 157.728-29.055 177.444-6.226 19.716 22.311 26.98 159.285 10.896 173.812z"/></g><path d="M221.599 371.949c-19.197 0-36.158-5.614-36.158.612 0 5.708 16.961 10.284 36.158 10.284 19.197 0 33.886-4.8 33.886-10.507s-15.208-.389-33.886-.389z"/></g></svg>