<svg width="137" height="198" xmlns="http://www.w3.org/2000/svg"><g fill="none" fill-rule="evenodd"><g fill="#000"><g><path d="M70.018 28.86c1.664 0 2.558-1.04 2.558-2.638 0-1.597-.894-2.64-2.558-2.64-1.661 0-2.557 1.043-2.557 2.64 0 1.598.896 2.638 2.557 2.638"/><path d="M83.415 28.589c1.492 0 2.295-.936 2.295-2.369 0-1.43-.803-2.366-2.295-2.366-1.49 0-2.293.936-2.293 2.366 0 1.433.803 2.369 2.293 2.369"/><g><path d="M90.681 97.165c-1.297-.021-3.964-12.333-5.882-12.064 0 0 .208 7.387-4.356 11.192-3.03 2.729-13.787 2.915-16.897.293-4.67-3.673-4.69-11.07-4.69-11.07-1.917-.207-4.21 12.177-5.508 12.229-14.179 1.816-25.932-36.564-7.78-53.18 2.074-2.946 5.529 15.579 8.3 15.59 1.554.331 1.38-17.623 3.631-18.34 2.25-.714 24.654-1.213 27.352-.435 2.27.644 2.636 18.6 4.182 18.226 2.767-.104 5.661-18.724 7.83-15.84 18.64 16.067 8.039 54.778-6.182 53.4m-21.647-76.63c4.17 0 4.758.58 7.885.647 2.727.061 3.42-.855 7.312-.855 4.973 0 7.101 1.119 7.101 5.894 0 4.774-2.376 7.893-6.653 7.893-5.536 0-5.82-3.876-8.546-3.816-3.13.07-3.258 3.396-7.261 3.481-5.4.114-7.941-2.372-7.941-7.558s2.7-5.686 8.103-5.686M136.59 81.15c.208-1.37-16.089-8.028-16.928.934-.819 8.846-5.889 39.097-17.473 33.348 3.418-11.876 12.509-36.321 14.03-61.439 3.443 1.39 9.678 1.412 13.442.426 0 0-5.074-4.117-7.436-7.447 0 0 5.517-1.638 8.65-4.192 0 0-5.042-2.603-9.771-3.743 0 0 .54-3.02 4.21-6.659 0 0-5.912.549-9.677 2.188a19.3 19.3 0 00-1.442-4.803c.135.021.239 0 .312-.052 1.69-1.182.445-19.21-3.185-23.981-3.62-4.772-9.678-5.933-10.445-4.741-.77 1.184 5.487 4.72 3.93 11.234-1.359 5.665-4.272 5.238-4.7 5.145-13.4-5.538-32.672-4.876-47.193 1.752.332-.34-5.25.53-9.514-4.23-4.252-4.753-.227-10.447-1.43-11.11-1.214-.654-6.11 2.976-7.25 8.547-1.14 5.57 3.63 15.124 5.663 15.372-1.597 1.66-3.01 3.714-4.243 6.11-2.81-2.594-10.205-4.025-10.205-4.025 2.998 3.92 3.13 6.96 3.13 6.96-4.573.704-9.602 2.832-9.602 2.832 2.61 2.8 7.579 4.916 7.579 4.916-2.623 3.081-7.882 6.71-7.882 6.71 3.008 1.162 7.926 1.703 11.379 1.07-3.03 17.717-2.594 40.848-.851 61.79-12.83 5.01-13.339-26.43-12.82-35.423.517-8.993-16.596-4.845-16.596-3.455 0 1.381 7.957 1.556 8.298 2.937.352 1.379-7.605 3.287-8.298 4.49-.685 1.214 6.399-.466 9.334 1.33 2.948 1.782-2.883 35.993 21.19 41.698 2.408 22.166 5.924 39.8 7.513 42.288 1.53 2.394 10.204 2.344 20.675 1.215-.66 2.567-1.958 9.584.599 18.506.258.88-.26 1.825-1.173 2.208-2.114.892-5.779 2.8-8.38 6.141-.582.745-.154 1.492.84 1.575 3.288.272 10.621.716 18.235.012.995-.095 1.858-.925 1.743-1.835-.156-1.414-.665-3.497-2.159-5.375-.591-.735-1.617-1.877-2.053-2.698-1.771-3.248-5.626-10.825-1.881-19.248 2.517-.34 5.072-.72 7.618-1.132l.258-.043c.24-.038.475-.08.714-.12 5.209 5.293 8.561 19.117 4.857 23.241-1.59 1.762-1.94 3.961-2.094 5.375-.106.91.724 1.74 1.691 1.835 7.364.704 12.83-.031 16.004-.3.965-.095 1.379-.833.818-1.578-2.52-3.339-4.866-4.284-6.919-5.166-.881-.395-3.514-2.105-3.265-2.987 2.559-9.256-3.235-18.551-5.27-21.43 11.709-2.149 21.64-4.592 22.758-5.56 2.353-2.033-.042-23.141-.82-34.22l-.012-.18c22.372-3.905 21.88-36.463 24.958-37.754 3.175-1.326 9.936 1.393 9.43.095-.5-1.308-8.082-4.377-7.533-5.694.552-1.308 8.434-.29 8.642-1.66"/></g></g></g></g></svg>