<svg width="100" height="198" xmlns="http://www.w3.org/2000/svg"><g fill="none" fill-rule="evenodd"><g fill="#000"><g><path d="M80.707 96.82c-1.65 2.068-62.094 3.078-63.326 1.864-1.563-1.544-3.87-23.859-.662-27.732.171-.206 1.842-.356 4.537-.462.18 1.759.743 4.176 2.509 4.133 1.803-.033 2.384-2.528 2.571-4.263 2.288-.037 4.88-.06 7.662-.07.154 1.762.694 4.36 2.532 4.325 1.825-.035 2.398-2.593 2.575-4.331 2.846.004 5.797.017 8.758.039.156 1.766.694 4.343 2.522 4.3 1.805-.035 2.386-2.523 2.575-4.257 2.7.025 5.35.06 7.879.097.202 1.729.791 3.945 2.487 3.912 1.66-.027 2.282-2.142 2.516-3.834 2.702.045 5.16.092 7.238.142.17 1.458.662 3.316 2.068 3.285 1.364-.028 1.887-1.757 2.087-3.172 1.723.059 2.735.111 2.801.156 1.622 1.086 2.59 23.46.67 25.868M24.854 39.407c3.85 0 4.551 4.167 4.551 10.54 0 6.386-.702 10.552-4.551 10.552-3.85 0-4.542-4.166-4.542-10.551 0-6.374.692-10.541 4.542-10.541m47.673-2.148c4.386 0 5.214 4.522 5.214 11.843 0 7.317-.828 11.847-5.214 11.847-4.388 0-5.216-4.53-5.216-11.847 0-7.321.828-11.843 5.216-11.843M92.57 26.384c-.57-.335-1.351-.67-2.335-1.008-.059-5.017 5.756-18.542 2.814-18.718-2.694-.16-8.621 11.27-8.709 17.165-2.84-.599-6.216-1.183-9.935-1.727-.049-4.975 3.364-18.757.402-18.925-2.82-.166-6.242 12.582-6.298 18.143a319.53 319.53 0 00-8.879-.95C59.628 17.319 61.041.197 57.757.003c-3.14-.182-4.04 15.767-4.045 19.868-3.354-.254-6.74-.458-10.077-.608C43.59 14.469 42.317.179 39.322.002c-2.961-.174-1.566 14.014-1.597 19.053a230.858 230.858 0 00-8.95-.049C28.721 13.98 25.134.177 22.191.002c-2.99-.174.702 14.307.676 19.209-3.233.177-6.155.464-8.62.877-.169-6.046-6.244-15.919-8.743-16.061-2.746-.158 2.982 11.886 2.912 17.654a7.133 7.133 0 00-1.433.857c-10.301 8.245-5.399 74.865 0 82.745 5.4 7.889 24.131 7.653 24.675 9.119.544 1.462-.68 62.653 0 69.187.137 1.329 1.448 2.296 3.482 2.956-.018 1.677.103 10.69 3.709 10.592 3.072-.078 3.672-6.55 3.785-9.461 2.83.12 5.895.016 8.797-.27.097 3.063.68 9.285 3.68 9.195 3.526-.095 3.791-8.564 3.807-10.477 2.551-.686 4.383-1.55 4.855-2.535 2.137-4.398-2.799-67.59-1.598-68.786 1.199-1.204 26.716-4.284 30.793-9.403 4.08-5.118 5.464-25.809 6.111-30.04.567-3.657 2.688-43.548-6.51-48.976"/></g></g></g></svg>