<svg width="281" height="159" xmlns="http://www.w3.org/2000/svg"><g fill="none" fill-rule="evenodd"><g fill="#000"><path d="M138.127 15.437c-.416 1.796-1.793 2.718-3.863 2.249-2.075-.48-2.91-1.902-2.507-3.706.408-1.798 1.788-2.717 3.868-2.248 2.07.469 2.907 1.902 2.502 3.705m-15.105-1.963c-.48 2.06-2.062 3.122-4.433 2.581-2.376-.546-3.343-2.181-2.872-4.243.48-2.07 2.06-3.122 4.428-2.584 2.384.54 3.346 2.184 2.877 4.246M.339 95.177c.845 2.083 13.323-10.395 24.613-22.3 3.905 1.604 6.94-3.356 8.777-2.97 2.105.44 17.273 18.629 20.478 19.364 2.587.589 14.321-.884 18.863-.93-.785 5.683-.588 11.12.9 14.14.941 1.908 7.545 4.314 17.04 6.804l-.158-.04c-3.487 2.124-24.31 20.492-24.31 20.492s-14.812-7.103-15.745-6.719c-.802.333-1.092.991-.423 1.596l18.852 17.489c.672.607 1.031.183 1.428-.584 2.265-4.369 21.472-27.886 30.542-29.764l-.152-.037c16.352 3.697 37.037 7.28 53.16 9.43l-.171-.024c-1.063 3.943-4.262 10.43-4.262 15.296 0 4.646 6.763 15.478 6.763 15.478s-15.624 4.707-16.036 5.632c-.347.788-.104 1.467.796 1.44l25.715.03c.903-.021.871-.578.634-1.404-1.377-4.728-8.87-17.489-8.95-19.26-.06-1.239 4.072-11.183 6.792-15.85 8.482.852 14.21.969 14.639-.022 1.56-3.663 3.14-13.711 4.318-20.113 3.807 2.289 13.008 9.404 15.475 10.176 3.063.96 24.655-7.293 26.642-6.63 1.99.663 1.918 8.208 8.037 6.809 6.116-1.401 5.746-9.241 4.348-13.285a2.986 2.986 0 01-.086-.261c9.716.338 43.559-9.995 42.096-14.71-1.694-5.454-12.164-.299-13.485 0-1.332.295-5.9-24.472-21.674-18.352-15.77 6.116-2.357 24.428-2.65 26.183-.208 1.223-3.866 1.308-5.778 2.859-1.14-2.211-3.05-3.607-7.638-2.438-7.222 1.844-2.507 6.783-4.715 7.566-2.211.789-18.277 5.408-22.774 4.081-3.591-1.057-12.364-6.564-15.752-8.738.122-.282.25-.57.389-.873 5.709-12.747 21.34-45.112 7.627-63.506-16.12-21.597-64.86-35.076-89.037-30.255-24.173 4.83-20.694 20.74-18.984 23.014.23.304 1.817.485 4.359.656.018 2.035 1.609 5.876 2.41 6.279.914.46 3.373-3.709 3.416-5.946 2.099.117 4.427.253 6.934.426.26 2.296 1.806 6.05 2.563 6.481.89.493 3.087-3.532 3.282-6.018 3.194.288 6.54.642 9.923 1.122.04 2.262 1.82 6.785 2.653 7.264.908.544 3.14-3.766 3.25-6.316 3.298.6 6.567 1.322 9.684 2.198.154 2.336 1.846 6.55 2.642 7.02.783.463 2.526-2.63 3.08-5.137.048.019.098.038.146.054 11.783 4.494 19.767 11.947 16.088 24.559-2.723 9.318-8.68 14.292-16.101 16.639-.203-1.86-1.076-4.01-1.745-3.844-.82.207-3.226 3.43-3.474 5.034-2.483.387-5.061.568-7.693.57.202-1.947-.933-5.277-1.761-5.072-.797.197-3.082 3.234-3.453 4.883a100.644 100.644 0 01-7.986-.921c.37-1.879-.842-5.595-1.718-5.379-.778.195-2.976 3.1-3.416 4.771a.78.78 0 01-.077-.293 234.95 234.95 0 01-8.45-1.806c.477-1.82-.78-5.76-1.683-5.533-.773.194-2.963 3.088-3.413 4.76A.866.866 0 0195.86 70c-6.097-1.438-10.76-2.485-12.717-1.92-3.756 1.076-6.812 6.771-8.647 13.373-4.177.157-14.596.44-18.294-.467-4.672-1.145-16.71-13.36-18.296-15.17-1.444-1.652 3.964-3.36.736-7.657 2.847-3.111 4.635-5.099 4.635-5.099s9.081-11.43.288-17.744c-8.794-6.311-15.406 3.87-15.406 3.87s4.558 5.025 5.237 4.05c1.836-6.783 11.037-4.516 9.345.74-.452 1.404-3.814 5.41-8.468 10.605-3.549-1.526-5.81 1.18-8.376 3.38-2.59 2.217-5.783 6.853-4.6 10.84C10.327 80.787-.558 92.966.339 95.177"/></g></g></svg>