<svg width="146" height="198" xmlns="http://www.w3.org/2000/svg"><g fill="none" fill-rule="evenodd"><g fill="#000"><g><g><path d="M79.09 90.4c-5.013-2.896-3.609-14.096-6.011-15.106-1.095-.453-3.754-.833-6.433-.896-3.196-.099-6.445.21-7.203 1.301-1.391 1.995-3.003 10.613-6.012 13.213-3.003 2.592-28.644-3.81-30.652-7.01-1.997-3.2.806-22.223 4.013-24.618 3.2-2.405 34.263 2.995 35.056 5.997.809 3.01-1.596 4.613-.998 6.213.33.876 3.138 1.382 5.867 1.486 2.248.104 4.438-.084 5.155-.511 1.605-.975-.403-8.98 2.408-11.985 2.8-3.003 26.638-6.4 31.053-3.605 5.53 3.519 11.18 24.89 9.795 28.364-1.38 3.459-31.042 10.05-36.037 7.157M68.4 115.474c-12.587 0-22.026-.504-22.026-7.935 0-7.437 9.439-6.792 22.025-6.792 12.591 0 22.027-.645 22.027 6.792 0 7.43-9.436 7.935-22.027 7.935m-3.895-76.57c3.261 0 5.89 2.876 5.89 6.418 0 3.529-1.924 6.4-5.89 6.4-3.954 0-5.875-2.871-5.875-6.4 0-3.542 2.63-6.418 5.875-6.418m80.353 101.213c-1.262-2.086-18.61-12.023-23.84-14.988.687-.974 1.179-1.787 1.445-2.4 2.585-5.946.687-58.506-11.012-81.308 5.723-3.606 17.189-11.145 17.538-14.008.47-3.825-13.486-24.684-15.926-26.258-1.663-1.084-11.565-1.54-6.975 5.48 3.51 5.34 11.78 15.307 11.147 17.251-.457 1.43-8.767 6.271-13.213 8.765-19.885-14.068-70.111-11.62-81.94 3.445-4.782-1.686-10.53-3.91-11.098-4.941-.97-1.788 5.282-13.114 7.733-19.038 3.208-7.732-6.433-5.438-7.862-4.079C8.738 10.043-1.07 33.132.095 36.81c.804 2.494 11.37 7.097 18.008 9.762-4.354 22.752.723 69.649 4.578 79.661.615 1.588 1.794 3.33 3.419 5.147-4.656 3.94-19.729 16.828-20.583 19.096-.999 2.686 5.865 18.314 7.418 19.575 1.068.856 8.402 1.74 6.164-3.506-1.703-4-6.189-11.55-5.375-12.894.676-1.132 14.223-12.653 18.684-16.43 1.731 1.394 3.645 2.787 5.662 4.156-3.99 3.383-12.847 10.973-14.028 12.859-1.513 2.443 2.126 19.086 3.414 20.633.866 1.038 7.884 3.352 6.721-2.228-.874-4.261-3.776-12.534-2.72-13.696.771-.851 8.618-9.213 12.792-13.654a121.597 121.597 0 004.352 2.44c-1.668 8.117-3.708 19.35-3.739 21.024-.096 4.754 5.422 15.058 5.422 15.058s-9.76 9.185-10.448 10.942c-.577 1.496-.119 2.77 1.468 2.683l27.71-.719c1.601-.078 1.518-1.124 1.046-2.676-2.62-8.828-14.195-22.585-14.426-25.914-.11-1.668.008-9.455.302-16.749 8.368 3.808 16.512 6.286 22.047 6.073 5.003-.192 11.182-3.306 17.349-7.617.532 7.552.902 15.985.826 17.744-.122 3.342-11.31 17.405-13.689 26.311-.42 1.547-.466 2.603 1.123 2.64l27.72-.057c1.589.038 2.014-1.24 1.401-2.735-.735-1.729-10.759-10.637-10.759-10.637s5.221-10.461 4.988-15.203c-.089-1.858-2.937-15.187-4.886-23.238.724-.6 1.447-1.205 2.159-1.82.383-.334.755-.661 1.143-.995 4.77 3.48 14.652 10.686 15.602 11.405 1.262.947-.048 9.618-.119 13.967-.099 5.694 6.357 2.109 7.018.927.976-1.76 1.455-18.798-.492-20.912-1.576-1.688-12.55-7.96-16.76-10.321a133.346 133.346 0 004.896-5.084c4.517 2.56 20.989 11.899 21.888 12.922 1.044 1.177-1.934 9.427-2.871 13.678-1.224 5.557 5.816 3.327 6.711 2.296 1.295-1.529 5.13-18.16 3.627-20.607"/></g><path d="M69.05 106.144c-8.413 0-14.724-1.167-14.724 1.152 0 2.309 6.311 3.063 14.723 3.063 8.417 0 14.726-.754 14.726-3.063 0-2.32-6.309-1.152-14.726-1.152"/></g></g></g></svg>