<svg width="167" height="197" xmlns="http://www.w3.org/2000/svg" xmlns:xlink="http://www.w3.org/1999/xlink"><defs><polygon id="a" points="166.90768 0.857595238 0 0.857595238 0 196.630952 166.90768 196.630952 166.90768 0.857595238"/></defs><g fill="none" fill-rule="evenodd"><g><g><g transform="translate(0 -.488)"><mask id="b" fill="#fff"><use xlink:href="#a"/></mask><path d="M68.552 89.45c.74-7.76 12.668-5.92 28.633-4.375 15.977 1.535 28.028 2.006 27.285 9.767-.746 7.764-12.785 7.129-28.752 5.586-15.976-1.537-27.91-3.214-27.166-10.978m52.915-23.884c.88-2.77 4.78-5.13 12.468-5.13 7.69 0 14.644 2.334 15.36 5.13.834 3.285-4.57 5.129-13.92 5.129-9.945 0-15.105-1.372-13.908-5.13m-58.904-2.84c-7.614-1.21-11.786-3.404-10.676-5.975.94-2.189 6.914-3.186 13.18-2.196 6.263.998 9.142 3.421 9.497 5.79.488 3.224-3.883 3.67-12.001 2.381M.243 148.328L28.75 172.33c.705.618 1.053.19 1.436-.578 2.163-4.409 15.452-21.518 16.592-22.866 1.517-1.793 17.988-20.078 25.195-28.069 1.678-1.862 5.047-3.065 7.525-2.714 8.5 1.198 17.45 2.224 26.198 2.963 2.494.213 5.63 2.061 6.997 4.158 6.62 10.149 18.804 28.831 19.857 30.504.926 1.47 6.614 9.647 10.033 14.55 1.434 2.054 1.036 5.02-.838 6.681-2.217 1.964-4.872 4.437-5.917 5.882-1.586 2.182-8.143 11.367-7.96 12.36.153.855.094 1.824.844 1.267l29.358-22.953c.747-.564.402-.995-.268-1.524-3.861-3.034-17.829-19.592-18.91-20.992-1.205-1.552-11.5-15.726-18.535-25.424-1.471-2.028-.639-3.559 1.865-3.464 20.588.808 37.18-.663 39.279-6.23 5.82-15.435 7.252-97.74 2.766-105.61C159.769 2.397 47.63-1.53 42.49 2.397c-5.135 3.94-14.202 95.324-9.068 104.103 1.588 2.71 13.838 6.105 30.19 9.06 2.464.443 3.034 2.217 1.266 3.994-8.776 8.815-22.703 22.804-24.033 24.098-1.245 1.213-8.06 8.474-12.139 12.838-1.71 1.828-4.69 2.056-6.703.563-2.376-1.762-5.345-3.852-6.97-4.577-2.464-1.101-12.793-5.619-13.73-5.235-.806.324-1.762.467-1.062 1.087" fill="#000" mask="url(#b)"/></g><path d="M77.268 87.456c1.902-.281 3.57.171 3.653.524.048.216.088.434.116.647.088.725.107 1.445.029 2.141-.057.446-.133.884-.242 1.32-.172.718-2.094.92-3.946-.036-1.505-.777-2.343-1.684-2.244-2.752.102-1.06 1.065-1.614 2.634-1.844" fill="#000"/><path d="M82.605 88.781c.07-.22.153-.438.255-.654.161-.353 2.066-.462 4.22-.213 2.15.249 3.93.625 3.974.831.022.124.048.247.064.372.08.718.111 1.434.029 2.142a10.636 10.636 0 01-.431 2.018c-.36 1.08-2.58 1.642-4.633 1.303-2.054-.34-3.878-1.369-3.928-2.198a12.75 12.75 0 01.014-1.504c.045-.706.21-1.408.436-2.097" fill="#000"/><path d="M92.689 89.273a3.33 3.33 0 01.127-.342c.074-.184.812-.248 1.635-.158.493.052.992.1 1.491.144.847.08 1.692.157 2.53.225 1.396.114 2.567.358 2.612.564.026.123.052.251.064.374.09.725.116 1.443.028 2.151a10.96 10.96 0 01-.433 2.028c-.362 1.088-1.93 1.791-3.187 1.687-.757-.061-1.512-.135-2.276-.208-.405-.038-.81-.08-1.214-.124-.672-.068-1.621-1.002-1.77-2.15a10.709 10.709 0 01-.045-2.095c.045-.708.21-1.407.438-2.096" fill="#000"/><path d="M102.717 90.234c.043-.126.095-.254.147-.374.088-.207 1.694-.266 3.578-.105 1.888.161 3.454.529 3.502.758.028.143.052.282.07.417.093.73.119 1.446.03 2.154-.07.559-.169 1.116-.323 1.668-.248.902-2.025 1.646-3.76 1.63-1.734-.017-3.504-.934-3.639-2.038a10.432 10.432 0 01-.04-2.013c.054-.706.218-1.405.435-2.097" fill="#000"/><path d="M111.585 91.087c.04-.118.087-.236.14-.353.08-.191 1.566-.213 3.165.434 1.283.516 1.986 1.215 1.891 2.189-.09.962-.9 1.651-2.236 2.127-1.699.605-3.355.017-3.407-.805-.031-.502-.02-.997.012-1.495a9.237 9.237 0 01.435-2.097" fill="#000"/></g></g></g></svg>