<svg viewBox="329.983 196.136 70.817 102.517" xmlns="http://www.w3.org/2000/svg"><path d="M366.228 210.836c.864 0 1.328-.54 1.328-1.37 0-.829-.464-1.371-1.328-1.371-.864 0-1.329.542-1.329 1.371 0 .83.465 1.37 1.329 1.37"/><path d="M373.185 210.695c.775 0 1.192-.485 1.192-1.229 0-.744-.417-1.23-1.192-1.23-.775 0-1.192.486-1.192 1.23s.417 1.229 1.192 1.229"/><path d="M400.799 237.991c.108-.711-8.355-4.169-8.791.485-.425 4.594-3.058 20.304-9.074 17.318 1.775-6.167 6.496-18.862 7.286-31.906 1.788.722 5.026.733 6.981.221 0 0-2.635-2.138-3.862-3.867 0 0 2.865-.851 4.492-2.177 0 0-2.618-1.352-5.074-1.944 0 0 .28-1.568 2.186-3.458 0 0-3.07.285-5.025 1.136a9.94 9.94 0 00-.749-2.494c.07.011.124 0 .162-.027.878-.614.231-9.976-1.654-12.454-1.88-2.478-5.026-3.081-5.424-2.462-.399.615 2.85 2.452 2.041 5.834-.706 2.942-2.219 2.721-2.44 2.672-6.959-2.876-16.968-2.532-24.509.91.172-.177-2.727.275-4.941-2.197-2.208-2.468-.118-5.425-.743-5.77-.63-.339-3.173 1.546-3.764 4.439-.593 2.893 1.884 7.854 2.94 7.983-.829.862-1.563 1.929-2.203 3.173-1.46-1.347-5.3-2.09-5.3-2.09 1.557 2.036 1.626 3.614 1.626 3.614-2.375.366-4.987 1.471-4.987 1.471 1.356 1.454 3.936 2.553 3.936 2.553-1.362 1.6-4.093 3.486-4.093 3.486 1.562.603 4.116.883 5.909.554-1.573 9.201-1.347 21.213-.442 32.089-6.663 2.602-6.927-13.726-6.658-18.396.27-4.67-8.618-2.516-8.618-1.794 0 .717 4.132.808 4.309 1.525.183.716-3.949 1.708-4.309 2.333-.356.629 3.323-.243 4.848.689 1.53.926-1.498 18.692 11.004 21.655 1.25 11.511 3.076 20.669 3.901 21.961.795 1.243 5.299 1.217 10.737.632-.343 1.332-1.016 4.976.311 9.609.134.457-.135.948-.609 1.147-1.098.463-3.001 1.454-4.352 3.189-.302.388-.08.775.436.818 1.708.141 5.516.372 9.47.006.518-.049.965-.479.905-.953-.081-.733-.344-1.816-1.121-2.791-.307-.382-.84-.975-1.066-1.4-.92-1.688-2.922-5.623-.977-9.997 1.307-.177 2.634-.374 3.956-.588l.134-.022c.125-.019.247-.042.371-.063 2.705 2.749 4.446 9.928 2.523 12.07-.826.915-1.008 2.058-1.088 2.791-.055.474.376.904.878.953 3.824.366 6.663-.016 8.311-.156.501-.049.716-.432.425-.819-1.309-1.734-2.526-2.225-3.593-2.683-.458-.205-1.825-1.093-1.696-1.551 1.329-4.807-1.68-9.634-2.736-11.129 6.08-1.116 11.237-2.385 11.818-2.887 1.223-1.056-.022-12.018-.426-17.771l-.006-.094c11.618-2.028 11.363-18.936 12.961-19.606 1.649-.689 5.16.723 4.897.05-.259-.68-4.197-2.274-3.911-2.958.286-.679 4.379-.151 4.487-.862zm-35.083-31.478c2.166 0 2.472.301 4.096.336 1.416.032 1.775-.444 3.796-.444 2.583 0 3.688.581 3.688 3.061 0 2.479-1.233 4.099-3.455 4.099-2.875 0-3.023-2.013-4.438-1.982-1.626.037-1.692 1.764-3.771 1.808-2.804.059-4.124-1.232-4.124-3.925 0-2.693 1.402-2.953 4.208-2.953zm11.242 39.795c-.674-.011-2.059-6.405-3.055-6.264 0 0 .108 3.835-2.262 5.811-1.573 1.418-7.16 1.514-8.775.152-2.425-1.907-2.435-5.749-2.435-5.749-.996-.107-2.187 6.325-2.861 6.351-7.363.943-13.466-18.988-4.04-27.617 1.077-1.53 2.871 8.091 4.31 8.096.807.172.717-9.152 1.886-9.523 1.169-.372 12.803-.631 14.204-.227 1.179.334 1.369 9.659 2.172 9.465 1.437-.054 2.94-9.723 4.066-8.226 9.68 8.344 4.175 28.447-3.21 27.731z"/></svg>