<svg xmlns="http://www.w3.org/2000/svg" viewBox="0 0 70.5 82.6" style="enable-background:new 0 0 70.5 82.6"><path d="M.1 62.2l12 10.1c.3.3.4.1.6-.2.9-1.9 6.5-9.1 7-9.7.6-.8 7.6-8.5 10.6-11.8.7-.8 2.1-1.3 3.2-1.1 3.6.5 7.4.9 11.1 1.3 1.1.1 2.4.9 3 1.8 2.8 4.3 7.9 12.2 8.4 12.9.4.6 2.8 4.1 4.2 6.1.6.9.4 2.1-.4 2.8-.9.8-2.1 1.9-2.5 2.5-.6.8-3.3 4.7-3.3 5.1.1.4 0 .8.4.5l12.4-9.7c.3-.2.2-.4-.1-.6-1.6-1.3-7.5-8.3-8-8.9-.5-.7-4.9-6.6-7.8-10.7-.6-.9-.3-1.5.8-1.5 8.7.3 15.7-.3 16.6-2.6 2.4-6.5 3-41.2 1.1-44.5C67.5.7 20.1-1 18 .7c-2.2 1.7-6 40.2-3.8 43.9.7 1.1 5.8 2.6 12.8 3.8 1 .2 1.3.9.5 1.7L17.3 60.3c-.5.5-3.4 3.6-5.1 5.4-.7.8-2 .9-2.8.2-1-.7-2.3-1.6-2.9-1.9-1-.5-5.4-2.4-5.8-2.2-.5.1-.9.2-.6.4zm26.3-36.1c-3.2-.5-5-1.4-4.5-2.5.4-.9 2.9-1.3 5.6-.9 2.6.4 3.9 1.4 4 2.4.2 1.4-1.6 1.6-5.1 1zm24.9 1.2c.4-1.2 2-2.2 5.3-2.2 3.2 0 6.2 1 6.5 2.2.4 1.4-1.9 2.2-5.9 2.2-4.2 0-6.4-.6-5.9-2.2zM29 37.4c.3-3.3 5.4-2.5 12.1-1.8 6.8.6 11.8.8 11.5 4.1-.3 3.3-5.4 3-12.2 2.4-6.7-.7-11.7-1.4-11.4-4.7z"/><path d="M32.7 36.8c.8-.1 1.5.1 1.5.2v1.2c0 .2-.1.4-.1.6-.1.3-.9.4-1.7 0-.6-.3-1-.7-.9-1.2.1-.5.5-.7 1.2-.8z"/><path d="M34.9 37.3c0-.1.1-.2.1-.3.1-.1.9-.2 1.8-.1s1.7.3 1.7.4v1.1c0 .3-.1.6-.2.9-.2.5-1.1.7-2 .5-.9-.1-1.6-.6-1.7-.9v-.6c.1-.4.2-.7.3-1z"/><path d="M39.2 37.5s0-.1.1-.1c0-.1.3-.1.7-.1.2 0 .4 0 .6.1.4 0 .7.1 1.1.1.6 0 1.1.2 1.1.2v1.1c0 .3-.1.6-.2.9-.2.5-.8.8-1.3.7-.3 0-.6-.1-1-.1-.2 0-.3 0-.5-.1-.3 0-.7-.4-.7-.9v-.9c-.1-.3 0-.6.1-.9z"/><path d="M43.4 37.9c0-.1 0-.1.1-.2 0-.1.7-.1 1.5 0s1.5.2 1.5.3v1.1c0 .2-.1.5-.1.7-.1.4-.9.7-1.6.7-.7 0-1.5-.4-1.5-.9v-.9c-.1-.2 0-.5.1-.8z"/><path d="M47.2 38.3s0-.1.1-.1c0-.1.7-.1 1.3.2.5.2.8.5.8.9s-.4.7-.9.9c-.7.3-1.4 0-1.4-.3v-.6c-.1-.4 0-.7.1-1z"/></svg>