<svg xmlns="http://www.w3.org/2000/svg" viewBox="0 0 70.5 90.5" style="enable-background:new 0 0 70.5 90.5"><g><path d="M40.3 0C16.7.2-3.1 41.2.4 60.4c.9 4.9 7.2 8 15.6 9.5 1.2 2.2 2.5 5.3 2.5 7.8-.1 4.2-5.6 10.2-5.3 11.8.3 1.7 22.9.8 22.6-.1-1.4-4.3-11.6-4-12.4-5.4-.8-1.4 1.1-3.6 1.1-5.9 0-2.4-1-5.2-2.2-7.4 7.9.7 16.8.3 24.8-1.1 1.2 2.2 2.7 5.4 2.6 8.1-.1 4.2-5.6 10.2-5.3 11.8.3 1.7 22.9.8 22.6-.1-1.4-4.3-11.6-4-12.4-5.4-.8-1.4 1.1-3.6 1.1-5.9.1-3.3-1.9-7.2-3.4-9.6 9.2-2.3 16.3-6 17.6-10.9C73.2 46.3 58.9-.1 40.3 0zm6.5 41.4c-9.3.4-13.5-1.7-13.7-6.3-.2-4.6 3.7-7.1 13-7.5 9.3-.5 13.5 1.5 13.7 6.3.3 4.7-3.7 7.1-13 7.5z"/><path d="M51.4 31.8c-1.4.1-2.3 1-2.3 2.6.1 1.6 1 2.4 2.5 2.4 1.4-.1 2.3-1 2.3-2.6s-1-2.4-2.5-2.4z"/><path d="M42.1 31.8c-1.7.1-2.6 1.3-2.5 3.1.1 1.8 1.1 2.9 2.8 2.8 1.7-.1 2.6-1.3 2.5-3.1 0-1.8-1-2.9-2.8-2.8z"/></g></svg>