<svg viewBox="0 0 89.3 115.8" xmlns="http://www.w3.org/2000/svg"><path d="M69.432 34.381c-1.567 11.845-5.446 25.905-10.909 34.021-1.074 5.802 10.582 19.408 10.639 20.792.138 3.219-3.73 16.265-3.592 16.947.137.683 6.496 6.055 6.966 7.231.397 1.004.121 1.871-.906 1.843H52.106c-1.038-.023-.999-.735-.723-1.791.677-2.606 6.589-6.865 6.939-7.478.344-.62 3.472-11.96 3.524-13.246.068-1.578-8.577-16.086-13.645-15.873-12.397 2.961-16.853.574-21.702-2.289a4.849 4.849 0 01-.426-.293c-3.661-.184-12.665 21.94-12.619 23.226.034 1.045 2.29 10.279 2.542 10.779.253.498 4.517 3.971 5.005 6.088.195.855.223 1.435-.523 1.458H6.401c-.747.022-.948-.683-.66-1.498.339-.959 4.924-5.331 5.027-5.888.097-.557-2.692-11.174-2.588-13.79.04-1.132 12.436-28.307 11.599-33l.125.251c-2.645-7.409-5.142-16.861-6.341-25.102-.012.041-.012.075-.017.104-2.113-1.912-7.467 0-7.013 13.813.091 2.715 1.308 4.717 3.609 5.687 1.171.5 2.474.299 3.593.93.838.477 1.194 2.365-.356 2.554-1.848.225-4.103-2.255-3.62 1.475.171 1.343 1.45 2.864 2.093 3.983.265.471.776 1.131.707 1.727-.161 1.315-1.395.93-1.94.213-.85-1.119-1.728-3.168-2.95-3.754-1.205-.579-.258 3.828-.218 4.235.052.563.264 1.47-.069 1.969-.563.844-1.606.316-1.791-.585-.235-1.194-.47-3.575-.929-4.672-.792-1.9-1.975 1.711-2.256 2.238-.992 1.871-2.651.879-1.836-1.096.464-1.124 1.377-2.99 1.262-4.425-.418-5.406.471-5.549.35-7.672C1.981 49.871-.285 39.272.03 35.679c.109-1.337.322-12.362 15.949-17.47.832-.51 1.939-.981 3.271-1.405C24.318 13.762 20.547 0 23.394 0c3.805 0-.597 14.697 5.561 14.743a69.774 69.774 0 011.716-.235c6.204-1.446 3.432-7.266 6.198-7.266 3.007 0 .86 6.486 6.319 6.067.171-.018 1.801-.23 1.99-.259C51.635 12.098 48.215.94 51.131.94c3.03 0-1.269 11.065 4.223 11.415.155.006.31.006.477 0 6.204-.269 2.427-6.755 5.343-6.755 3.048 0-.047 6.548 3.529 7.484.976.138 1.773.292 2.376.47.172.052.322.104.454.155.057.023.114.046.189.092 17.819 6.933 19.943 17.186 19.817 20.063-.327 7.467-.664 6.754-1.08 11.431-.247 3.083-.274 3.714-.149 5.847.096 1.641.744 3.466.547 5.319-.267 2.52-1.607 2.188-1.84 2.34v2.082h2.313c1.085 0 1.965.88 1.965 1.965v24.068c0 1.085-.88 1.965-1.965 1.965h-8.882a1.965 1.965 0 01-1.965-1.965V62.848c0-1.085.88-1.965 1.965-1.965h2.313v-2.07c-.486-.312-1.221-.486-1.207-1.784.017-1.601.505-1.183.87-2.299.753-2.303-.195-8.628-.195-8.628-.563-11.684-8.054-14.28-10.797-11.721zM57.527 22.875c-2.474 0-4.476 1.584-4.476 4.16 0 2.577 2.002 4.155 4.476 4.155 2.003 0 4.448-1.44 4.448-4.045 0-3.209-1.981-4.27-4.448-4.27zm-27.771 9.951c-.149-2.554-2.221-4-4.665-3.857-1.987.115-4.322 1.682-4.173 4.264.19 3.174 2.21 4.104 4.654 3.96 2.445-.143 4.333-1.82 4.184-4.367zm9.641 4.751c-2.209-2.117-4.98-1.939-6.725-.114-1.418 1.475-1.917 4.465.321 6.612 2.743 2.634 5.056 2.043 6.801.223 1.75-1.824 1.813-4.597-.397-6.721zm7.168-12.327c0-5.17-3.197-6.875-7.173-6.875-3.978 0-7.209 2.548-7.209 6.698 0 4.155 3.231 6.697 7.209 6.697 3.231 0 7.173-2.318 7.173-6.52zM57.182 40.9c0-4.137-2.559-5.503-5.744-5.503-3.185 0-5.768 2.037-5.768 5.36 0 3.323-.092 4.881 3.093 4.881 2.588 0 8.419-1.374 8.419-4.738z"/><path d="M56.727 26.53c0 1.629 2.795 1.629 2.795 0 0-1.636-2.795-1.636-2.795 0"/><path d="M50.426 40.143c0 2.105 3.609 2.105 3.609 0 0-2.101-3.609-2.101-3.609 0"/><path d="M38.138 24.338c0 2.634 4.506 2.634 4.506 0 0-2.629-4.506-2.629-4.506 0"/><path d="M35.057 42.569c1.4 1.344 3.38-.716 1.98-2.059-1.395-1.343-3.375.723-1.98 2.059"/><path d="M23.28 33.451c.092 1.612 2.858 1.452 2.766-.167-.097-1.613-2.863-1.452-2.766.167"/><g><path d="M39.343 51.918h2.695c.398 0 .616-.325.616-.707V49.67c0-.382-.218-.654-.616-.654h-2.695c-.398 0-.648.272-.648.654v1.542c0 .382.25.707.648.707z" style="fill:rgb(255, 255, 255)"/><path d="M44.305 67.073c-.005-.14-.011-.278-.011-.418a.165.165 0 00-.004-.04c-.05-.305-1.98-13.572-2-13.705-.016-.107-.112-.2-.22-.2h-1.44c-.009 0-.014.01-.02.01-.01 0-.014-.01-.023-.01h-1.44c-.11 0-.203.093-.22.2-.017.133-1.95 13.38-2.001 13.696l-.003.046c0 .14-.006.28-.012.417-.016.436-.035.889.123 1.358.188.557.997 2.524 3.412 4.441a.24.24 0 00.141.05c.01 0 .013-.004.022-.004.007 0 .014.004.021.004a.231.231 0 00.138-.05c2.417-1.914 3.225-3.883 3.413-4.44.16-.47.141-.92.124-1.355z" style="fill:rgb(255, 255, 255)"/></g></svg>