<svg viewBox="416.681 238.333 58.935 94.815" xmlns="http://www.w3.org/2000/svg"><path d="M458.214 265.495c2.492-1.824 14.385.288 16.11-4.988 1.727-5.277 2.589-14.959-3.164-19.085-5.754-4.119-44.269-4.119-50.022 0-5.754 4.125-4.891 13.808-3.165 19.085 1.726 5.275 13.619 3.164 16.11 4.988.875.639 1.146 2.745 1.181 5.316l-.202-.971c-4.833.154-20.178 8.256-15.104 11.806 2.532 2.048 9.315-6.019 15.265-7.589-.067 2.118-.178 4.269-.17 6.018-5.022.473-19.315 9.211-14.42 13.157 2.588 2.405 9.596-7.41 15.558-8.611l-.051-.279c.598.574 1.444 1.047 2.447 1.427.688 1.3-2.181 17.834-2.62 22.859-.576 6.586-.278 17.297.292 20.725-4.89.423-4.866 3.025-4.787 3.657.009.076.094.138.181.138h10.142c.087 0 .168-.062.176-.139.052-.478.128-2.08-1-3.005-1.036-3.706-1.581-13.592-1.456-19.681.087-4.203 1.342-20.713 4.602-23.158 0 0-.38-.165-.941-.393 2.099.217 4.35.19 6.418-.072-.363.165-.594.274-.594.274 3.34 2.336 5.142 18.795 5.367 22.993.327 6.082.11 15.979-.802 19.718-1.098.962-.967 2.561-.901 3.037.012.076.094.134.182.133l10.135-.337c.088-.002.17-.068.176-.144.059-.634-.004-3.235-4.904-3.496.456-3.445.397-14.159-.396-20.723-.6-4.969-3.967-21.178-3.39-22.713.957-.439 1.702-.972 2.138-1.599l-.045.326c6.01.935 13.447 10.428 15.926 7.911 4.807-4.243-10.556-12.587-15.289-12.515-.017-1.785-.126-3.928-.174-6.004 6.012 1.284 13.176 9.081 15.622 6.917 4.901-3.763-10.697-11.151-15.576-11.127.126-1.888.443-3.343 1.145-3.856zm-31.219-11.013c-2.226 0-3.418-1.311-3.418-3.325 0-2.008 1.192-3.319 3.418-3.319 2.222 0 3.418 1.311 3.418 3.319 0 2.014-1.196 3.325-3.418 3.325zm13.066 16.554c.576 0 1.048 1.817 1.048 4.067 0 2.245-.345 4.063-1.048 4.063-.707 0-1.053-1.818-1.053-4.063 0-2.25.473-4.067 1.053-4.067zm5.651 8.13c-1.059 0-1.571-1.818-1.571-4.063 0-2.25.701-4.067 1.571-4.067.868 0 1.57 1.817 1.57 4.067 0 2.245-.511 4.063-1.57 4.063zm5.569-8.13c.575 0 1.047 1.817 1.047 4.067 0 2.245-.346 4.063-1.047 4.063-.709 0-1.052-1.818-1.052-4.063 0-2.25.47-4.067 1.052-4.067zm4.804-19.395c0-2.595 1.605-4.292 4.597-4.292 2.986 0 4.591 1.697 4.591 4.292 0 2.594-1.605 4.292-4.591 4.292-2.992 0-4.597-1.698-4.597-4.292z"/></svg>