<svg xmlns="http://www.w3.org/2000/svg" viewBox="0 0 57.8 71" style="enable-background:new 0 0 57.8 71"><g><path d="M46.1 32.9c-.1.6.3.7 0 .7-.4 0 0-.1 0-.9 0 0-1-.1-1.2-.1l-.3.1c0 .8-.5.9-.8.9-.4 0-.7-.1-.7-.9v-.1h-.7v.2c0 .8-.3.9-.6.9s-.6-.3-.6-1.1v-.3h-.6v.4c0 .8-.3 1-.6 1-.4 0-.6-.1-.6-.9 0-.1-.1-.1-.1-.2h-.8c0 .8-.2.9-.5.9s-.6-.1-.7-.9c-.3 0-.8 0-.8.1 0 .9-.2 1-.6 1-.3 0-.6-.1-.6-.7-1.5.4-1.5 1-1.5 1.4 0 .4 0 1 1.5 1.4.1-.5.3-.6.6-.6s.8.1.8.9c.2 0-.3 0 .7.1 0-.8.1-.9.5-.9s.6.1.6.9v.1h.7v-.1c0-.8.3-.9.6-.9.4 0 .6.1.6.9v-.4c.2 0 .3-.5.5-.5h.1v.3c0-.8.3-.7.6-.7.4 0 .6.2.6 1v.2h.7c0-.8.3-.9.6-.9s1.3.1 1.3.8c.3 0-.5 0 1.5-.1 0-.8-.4-.9 0-.9.3 0 .3.1.3.7h-.1c1.6-.4 1.6-1.1 1.6-1.5-.3-.2-.4-.8-2-1.3z"/><path d="M55.4 14.8c-1.5-1.4-8.3-.6-9.7-1.2C43.9 12.8 39.1-.1 25.6 0 8 .1 3.5 11.9 1.7 17.9c-1.9 6.3-3.6 28.7 2.9 34.5 2 1.8 5.5 2.9 9.9 3.2 1.3 4.6 2.1 9.4 2.4 14.3.1.8.6 1.3 1.5 1 .3-.1 1.8-.6 2.2-.7.9-.1 1.6-.7 1.7-1.3 0-.6-2.1-.7-2.1-.7s2-1.2 1.8-1.7c-.2-.5-1-.7-1.8-.4 0 0-.8.3-.9.4-.7-3.7-1.6-7.3-2.7-10.8 4.5.1 9.6-.3 14.1-1 1.1 4.4 1.9 8.9 2.2 13.5.1.8.6 1.3 1.5 1 .3-.1 1.8-.6 2.2-.7.9-.1 1.6-.7 1.7-1.3 0-.6-2.1-.7-2.1-.7s2-1.2 1.8-1.7c-.2-.5-1-.7-1.8-.4 0 0-.8.3-.9.4-.7-3.6-1.5-7-2.6-10.4 5.5-1 9.9-2.1 10.8-3 1.6-1.5 4.4-10.5 5.8-11.5 1.6-1.2 5.9-1.5 7.7-3 2-1.7-.1-20.7-1.6-22.1zm-17.6 4.1c3.8-.5 5.4 2.1 5.8 4.5.3 2.4-1.8 3.8-4.6 4.2-2.8.4-5.2-.4-5.5-2.8-.4-2.5.6-5.4 4.3-5.9zm2.8 19.6c-4.2 0-9.3 0-9.3-4s5.2-4 9.3-4c4.2 0 9.3 0 9.3 4s-5.1 4-9.3 4zm9.8-12.4c-2.8.4-5.2-.4-5.5-2.8-.3-2.4.6-5.4 4.4-5.9 3.8-.5 5.4 2.1 5.8 4.5.2 2.4-1.9 3.8-4.7 4.2z"/><path d="M39.4 25.9c1.4-.2 2.3-1.4 2.1-2.8-.2-1.4-1.4-2.3-2.8-2.1-1.4.2-2.3 1.4-2.1 2.8.2 1.3 1.4 2.3 2.8 2.1zm-.5-4c.8-.1 1.6.5 1.7 1.3.1.8-.5 1.6-1.3 1.7-.8.1-1.6-.5-1.7-1.3-.2-.8.4-1.6 1.3-1.7z"/><path d="M48.9 19.6c-1.4.2-2.3 1.4-2.1 2.8.2 1.4 1.4 2.3 2.8 2.1 1.4-.2 2.3-1.4 2.1-2.8-.2-1.3-1.4-2.3-2.8-2.1zm.5 4c-.8.1-1.6-.5-1.7-1.3-.1-.8.5-1.6 1.3-1.7.8-.1 1.6.5 1.7 1.3.2.8-.4 1.6-1.3 1.7z"/></g></svg>