<svg xmlns="http://www.w3.org/2000/svg" viewBox="0 0 71.8 64.8" style="enable-background:new 0 0 71.8 64.8"><g><path d="M33 15c-1.7-.2-20 3.7-20.9 4C11.2 19.4 1 29.7.5 30.8c-2.4 6 3.8 23.7 4.6 25.3.8 1.5 5.9 1.2 8.5.7.3 0 .6-.3 1.1-.6 1.7 1.7 7.5 6.4 8.1 6.5h.2c-.3.3-.4.6-.4.7.5.8 10.9 1.8 11.9 1.4.9-.4 10.7-5.7 11.5-6.8.8-1.1 5.1-11.4 5.3-12.3.2-.9-2.7-18.9-3.3-19.9-.5-1.2-13.3-10.5-15-10.8zM9.1 37.2c.1-1.1 1.9-8.9 3-9.4s9.3.1 10 .6c.7.5 5.7 7.6 5.1 8.1-.6.5-11.8 7.6-12.7 7.5-.8-.1-5.5-5.6-5.4-6.8zm15.2 24.2c-.9-.8-6.3-4.7-7.5-6.9l1.2-1.2c1.3 1.4 7.3 6.4 7.9 6.5h.1c-.7.6-1.3 1.1-1.7 1.6zm2.9-2.8c-.6-.6-6.7-5.1-7.3-7.2.5-.5 1.1-1.1 1.6-1.7 1 1.2 6.7 6 8 6.8-.8.7-1.6 1.4-2.3 2.1zm3.7-3.4c-1.2-1.1-7-5.5-7.4-7.5.6-.6 1.1-1.1 1.7-1.6 1.2 1.2 7.8 6.2 8.6 6.5-.9.8-1.9 1.7-2.9 2.6zm4.3-3.9c-1.2-1-7.4-5.1-7.9-7.1 1-.9 2-1.6 2.8-2.1v.1c.5 1 4.7 6.4 6.2 8-.2.3-.6.7-1.1 1.1zm3.2-3.3c-.1.2-.3.5-.7.9-.5-.8-4-4.7-5.6-7.6h.6c4.4.3 6.4 5 5.7 6.7z"/><path d="M15.6 39.9c.4 0 1.9-1.6 1.9-1.8 0-.3-2-2.9-2.2-2.9-.3 0-2.1 1.6-2 2 0 .2 1.9 2.7 2.3 2.7z"/><path d="M55.1 27.7c.6-.3 11.7-10.8 11.4-11.2-.2-.5-13.8 6.6-15 7.6-.8.7 2.9 3.9 3.6 3.6z"/><path d="M64.7 12.4c.4-.2 6.4-7.1 6.2-7.4-.2-.3-8 4.6-8.7 5.3-.4.5 2.1 2.3 2.5 2.1z"/><path d="M63.2 25.4c-.5.5 2.1 2.4 2.5 2.1.4-.2 6.4-7.1 6.2-7.4-.2-.3-8.1 4.6-8.7 5.3z"/><path d="M52.2 7.4c.4-.2 6.3-7.1 6.2-7.4-.2-.3-8 4.6-8.7 5.3-.5.5 2.1 2.3 2.5 2.1z"/><path d="M52.5 37.8c-.5.5 2.8 3.1 3.2 2.9.4-.2 6.8-8.1 6.5-8.4-.2-.4-9 4.7-9.7 5.5z"/><path d="M36.5 13.2c.6-.3 11.6-10.7 11.4-11.2-.2-.5-13.9 6.6-15 7.6-.8.7 2.9 3.9 3.6 3.6z"/><path d="M47.3 19.8c.5-.2 8.5-8.5 8.2-8.9-.2-.4-10.8 4.4-11.6 5.2-.6.5 2.9 3.9 3.4 3.7z"/></g></svg>