<svg viewBox="293.524 7.086 54.959 79.624" xmlns="http://www.w3.org/2000/svg"><path d="M337.642 72.833c1.778-1.835 11.62-25.794 10.791-27.573-.83-1.778-16.008-6.759-18.854-7.114-2.846-.357-22.437-.545-23.954-2.964-5.81-9.25 5.218-21.581 6.165-23.598.948-2.015-7.048-5.634-8.655-4.15-3.083 2.841-9.369 20.158-9.605 26.087-.236 5.929 6.285 30.596 9.605 34.271.608.669 2.082 1.327 4.098 1.935-.456 1.674-.962 4.031-1.293 7.096-.757 6.896 3.029 8.713 4.884 7.594 3.713-2.233-2.429-7.149-1.609-14.145 2.804.708 6.258 1.339 9.783 1.837-.43 1.645-.885 3.87-1.193 6.697-.753 6.897 3.031 8.717 4.886 7.598 3.689-2.219-2.353-7.086-1.623-14.012 3.142.404 6.247.698 8.912.85a49.412 49.412 0 00-.795 5.028c-.754 6.897 3.035 8.713 4.89 7.593 3.414-2.053-1.522-6.385-1.687-12.517 2.836.075 4.834-.076 5.254-.513zm-11.464-25.329c.45-2.27 1.473-3.614 2.827-3.341 1.35.264 1.782 1.896 1.332 4.168-.455 2.276-1.474 3.619-2.826 3.353-1.352-.27-1.785-1.902-1.333-4.18zm-6.95-1.379c.394-1.984 1.287-3.149 2.466-2.918 1.177.233 1.551 1.656 1.159 3.639-.394 1.982-1.281 3.153-2.463 2.922-1.18-.238-1.556-1.661-1.162-3.643zm10.297 19.537c-.022-.806-.121-1.621-.413-1.864-.524-.45-3.047-.204-3.443.323-.346.464-.487 1.299-.545 2.058a28.586 28.586 0 01-2.665-.242 28.07 28.07 0 01-2.632-.466c.208-.867.369-1.853.143-2.237-.385-.635-2.805-1.352-3.303-.987-.406.298-.731.967-.968 1.632-3.5-2.319-2.152-6-1.271-10.09.067-.312 1.105-.421 2.661-.393-.085.84-.1 1.889.228 2.462.323.55 2.798.958 3.387.541.437-.309.673-1.717.792-2.7 1.669.176 3.447.414 5.107.68-.102.867-.168 2.115.199 2.754.32.552 2.8.959 3.388.547.398-.285.63-1.491.758-2.438 1.525.383 2.51.773 2.473 1.109-.439 3.918-.034 7.901-3.896 9.311z"/></svg>