<svg xmlns="http://www.w3.org/2000/svg" viewBox="0 0 85.9 73" style="enable-background:new 0 0 85.9 73"><path d="M82.9 1.9c-4.1-3.3-14 4-16.3 5.8-.9-2.9-2.2-5.3-4.1-6.5-8.5-5.4-46.4 8.9-48.2 10.6-.3.3-.5 1-.7 2-1.4-.9-8-4.5-11.6-1.5-1.2 1-2.6 8-2 8.7.4.5 5.8 1.9 6.1-.3.2-1.7-.7-5.1.2-5.5.8-.3 5.6 2 6.9 2.7v.1c-.1 2.2-.2 4.7-.1 7-1-.1-4.3-.3-6.5.5-2.5.8-6.6 1.5-6 2 .6.4 10.8 1.2 12.7 1.3.2 2.6.6 4.5 1.1 4.6 1.7.5 13.7 2.1 14.4 2.9.3.3.2.6.7 2.1 0 0-5.7 6.9-5.4 14.2.3 7.1 4.9 11.7 2.4 15.8 0 0 1.5-.2 2.8-1.6.6.2 1.4.5 1.6.2.4-.4 1.3-4.2 1-4.5-.1-.2-.7-.3-1.2-.4 0-.7-.1-1.4-.2-2.2.6-.1 1.4-.2 1.5-.6.1-.6-.9-4.3-1.3-4.4-.2-.1-.8.1-1.4.3-.1-.9-.1-1.9 0-2.8.4.2.9.4 1.1.2.5-.3 1.9-3.9 1.7-4.3-.2-.2-1-.5-1.6-.7.3-.7.6-1.5.9-2.1.5.3 1.3.7 1.6.5.3-.2.9-1.6 1.3-2.7.5.1.9.3 1.5.4.4.1.9.1 1.4.2-.9 2.2-3.2 8.5-1.6 14.3 1.9 6.8 7.5 10.2 6 14.8 0 0 1.5-.6 2.3-2.2.6.1 1.4.1 1.6-.2.3-.5.3-4.4-.1-4.6-.2-.1-.7-.1-1.2-.1-.2-.6-.4-1.3-.7-2.1.6-.2 1.3-.6 1.3-.9 0-.6-1.9-4-2.3-4-.2 0-.8.3-1.3.6-.3-.9-.5-1.8-.6-2.7.5.1 1 .2 1.2 0 .4-.4 1-4.3.6-4.6-.2-.2-1.1-.3-1.7-.3.1-.8.3-1.6.4-2.3.6.2 1.5.4 1.7.1.4-.4 1-4.3.6-4.6-.1-.1-.6-.2-1-.2.2-.5.3-.8.4-1.1.8-.1 1.6-.2 2.3-.4.5-.1.9-.2 1.3-.3.4 1.2 1.1 2.7 1.4 3 .3.2 1.1-.2 1.6-.5.3.7.7 1.4.9 2.1-.6.2-1.4.5-1.6.7-.2.4 1.2 3.9 1.7 4.3.2.2.7 0 1.1-.2.1.9.1 1.9 0 2.8-.5-.2-1.1-.4-1.4-.3-.4.1-1.4 3.9-1.3 4.4.1.3.9.5 1.5.6-.1.8-.2 1.5-.2 2.2-.5.1-1 .2-1.2.4-.3.3.6 4.1 1 4.5.2.3 1 0 1.6-.2 1.2 1.4 2.8 1.6 2.8 1.6-2.5-4.2 2.1-8.7 2.4-15.8.2-6.2-3.8-12-5-13.7.4-.8.5-1.6.6-2 .4-1.3 8 .8 11.6-1.4 1.5-.9 2.8-5.6 3.4-11.4 3 .8 10.3 2.9 10.7 3.6.5.9-3 3.5-4.2 5.2-1.5 2.2 4.1 4.7 4.8 4.6 1-.3 5.4-7.7 5.2-9.5-.7-5.6-14.6-6.9-16.3-7 .2-3.3.1-6.8-.5-10v-.2c1.7-.9 10.2-5.5 11.2-5.2 1 .3.2 4.6.6 6.6.4 2.7 6.3.6 6.6 0 .9-.9-1.1-9.3-2.5-10.4zM52.1 6.2c5-1 6.2 2.8 5.7 3.3-.6.6-8.8 2.1-9.3 2.1-.4 0-1.3-4.4 3.6-5.4zm-34.7 11c-.6-.2-1.1-4.2 3.8-5.4 4.9-1.2 5.9 3.1 5.5 3.3-.5.3-8.5 2.4-9.3 2.1zm26 15c-25.1 4.7-23-9.2-21.5-10.3.4-.3.3-.4 4.2-1.3.4 1.7.1 2.2.6 2.3.7.1 4.7-.4 5-.9.2-.3-.4-.6-.6-2.4 2.2-.4 11.5-2.7 13.7-3.1.5 1.8.2 2.1.5 2.3.5.4 3.9-.3 4.5-.7.4-.3.1-1-.1-2.7 3.3-.5 6-.9 6.4-.8 1.9.5 12.4 12.8-12.7 17.6z"/></svg>