<svg viewBox="0 0 72.3 94.8" xmlns="http://www.w3.org/2000/svg"><path d="M71.846 37.991c.74-5.134 3.823-28.906-24.593-36.58C18.839-6.264 6.221 19.72 6.707 23.13c.654 4.572 11.244-.652 15.002 3.602 3.754 4.256.721 9.625-2.855 11.422-3.575 1.796-13.371.49-13.864 1.142-.304.408.045 1.779 3.145 2.666a7.843 7.843 0 00-.595 2.518c-.121 1.959.851 3.455 1.245 3.455.393 0-.087-2.037.29-3.375.196-.699.717-1.533 1.155-2.158.533.084 1.117.154 1.755.211a7.751 7.751 0 00-.046 2.179c.24 1.951 1.465 3.244 1.855 3.168.385-.07-.469-1.986-.344-3.369.053-.572.282-1.26.534-1.865.675.023 1.402.029 2.181.015.028.506.114 1.125.313 1.778.572 1.877 2.002 2.943 2.371 2.803.369-.137-.801-1.873-.914-3.26-.031-.405.008-.881.088-1.358 10.849-.154 16.765 2.627 18.195 8.35.199.791.17 1.852-.025 3.113-1.793-.843-6.588-2.5-11.897.698-6.678 4.019-6.361 8.027-4.871 9.382 3.904 3.555 9-12.482 16.283-7.953l.073-.101c-.383 1.597-.94 3.402-1.59 5.308-1.471-.22-3.401-.103-5.448 1.127-4.328 2.612-4.127 5.207-3.16 6.086 2.059 1.871 4.619-4.621 8.035-5.568-2.812 7.92-6.754 17.041-6.515 20.73.636 9.856 12.045 11.596 12.383 10.78.435-1.069-3.325-5.17-1.797-10.78.884-3.26 7.146-9.293 14.162-16.381 2.47 2.873-1.291 10.028 1.672 10.317 1.298.129 3.477-1.461 2.508-6.424-.486-2.478-1.898-4.025-2.898-4.955 1-1.338 2.537-2.711 3.865-4.106 6.623 3.194-1.014 16.571 4.021 17.059 2.008.197 4.048-2.256 2.551-9.91-.984-5.018-3.437-7.559-7.437-8.723 9-7.656 14.713-15.846 15.713-22.762"/><path d="M4.133 27.966c-5 0-6 7.617 0 7.617s3-7.617 0-7.617zm.538.973c1.043-.43 1.652.131.643.828-1.008.695-1.227-.586-.643-.828zm1.502 3.197c-1.512.451-2.941-1.887-.549-2.066 2.397-.182 1.77 1.701.549 2.066z"/><path d="M13.133 35.763c9 0 5-8.77 0-8.77-3 0-6 8.77 0 8.77zm2.048-8.006c1.039-.43 1.652.131.64.826-1.005.698-1.228-.584-.64-.826zm.953 1.131c2.4-.184 1.77 1.701.551 2.068-1.516.451-2.948-1.888-.551-2.068z"/></svg>