<svg viewBox="399.386 369.277 70.568 98.287" xmlns="http://www.w3.org/2000/svg"><path d="M467.14 401.86c-2.048-2.549-4.137-4.571-6.412-6.146 4.79-9.412 1.327-23.017-14.144-26.437 0 0 17.856 14.389-1.01 17.506-20.86 3.448-7.457-15.87-7.457-15.87-10.71 7.315-10.744 15.528-5.327 20.585-19.195 2.145-30.056 14.59-32.688 24.615-2.432 9.269 1.82 23.909 5.457 25.078.389.125.913.183 1.533.192-.266.651-.237 1.849.387 2.908.849 1.428 2.648 1.997 2.951 1.712.305-.284-1.421-1.495-.571-3.167.437-.86.513-1.375.465-1.683 1.279-.159 2.699-.384 4.186-.633-.217 1.03-.056 2.52.767 3.859 1.328 2.162 4.159 3.017 4.642 2.584.48-.435-2.234-2.261-.889-4.798.684-1.287.812-2.065.747-2.531a87.383 87.383 0 013.465-.493c-.249.888-.144 2.288.61 3.538 1.131 1.873 3.542 2.618 3.95 2.243.408-.375-1.903-1.96-.76-4.156.457-.88.619-1.483.641-1.9a10.24 10.24 0 011.717.181 13.84 13.84 0 013.041 1.031c-.352.51-.521 1.47-.135 2.434.55 1.365 2.196 2.211 2.55 2.035.354-.175-1.098-1.54.06-2.763.057-.059.106-.118.157-.172 3.722 2.613 6.258 6.366 6.215 8.154-.049 1.746-5.458 12.533-1.303 14.422 4.16 1.881 1.692-9.227 7.538-8.318 7.862 1.223 3.766 11.887 7.796 11.691 4.025-.194 1.882-9.678 2.596-11.431.716-1.754 2.471-3.792 4.158-3.878 1.688-.085.919 1.941 3.247 1.668 5.004-.584-.779-9.483-.779-13.119 0-4.876 10.199-29.485 2.599-38.941zm-57.707 34.818c-4.799-2.245-2.132-7.675-1.626-7.59.51.087 8.486 3.6 8.894 4.476.332.701-2.47 5.359-7.268 3.114zm23.553-3.571c-4.241 3.739-8.377-1.129-8.072-1.589.303-.456 7.133-6.764 8.161-6.794.826-.028 4.147 4.65-.089 8.383z"/></svg>