<svg viewBox="0 0 72.2 76.7" xmlns="http://www.w3.org/2000/svg"><g transform="translate(13.011 -5.578) scale(.86643)"><circle cx="50.07" cy="24.957" r="6.333"/><path d="M68.258 56.474l-.88-8.202c-.163-.471-1.654-5.046-3.71-8.98-.53-1.014-1.779-3.608-3.182-4.482-3.301-2.057-5.813-2.156-6.292-2.162l-.001-.023-7.984.01c-.093-.001-.186-.005-.278 0h-.052v.006a3.493 3.493 0 00-2.688 1.618l-7.245 11.512-7.081 6.915a3.5 3.5 0 102.005 6.707s9.632-8.353 10.084-9.07l1.699-2.066v11.717l-3.607 14.072a3.498 3.498 0 00-.025 1.634l3.716 16.583a3.503 3.503 0 004.182 2.652 3.5 3.5 0 002.65-4.181L46.036 74.97l3.508-13.685a3.49 3.49 0 00.109-.869v-.417h.999v31.5a3.5 3.5 0 107 0V41.564l3.779 7.505.961 9.654c.63 1.827 1.861 2.608 3.689 2.175 1.828-.433 2.265-2.443 2.177-4.424z"/></g><path d="M19.051 27.405c.178 2.538 4.566 2.332 4.256-.533-.309-2.864-4.522-3.153-4.256.533"/><path d="M42.298 41.002c-.811-.217-.931 2.552-1.527 2.435-2.063-.409-2.679-3.517-3.714-4.541-1.105-1.091 3.6-7.785 3.556-8.831-.042-1.015-5.366-11.41-11.632-14.55a45.677 45.677 0 01.457-8.437c.127-.882-5.765-2.587-6.661-2.35-.671.177-1.215 1.905-.496 2.28.717.371 2.823-.241 2.836.341.014.579-.382 2.698-.918 3.3-.532.596-8.62-1.914-8.835-2.502-.207-.586.211-3.372.851-3.58.64-.207 2.924-.065 3.293-.12.367-.063.405-3.114.24-3.865-.167-.749-5.272-.657-6.03-.376-.762.282-1.492 4.03-2 6.886-.504 2.856.879 4.426 1.257 5.024.202.33-1.19 7.089-2.384 13.85-4.815 2.62-7.879 9.269-7.984 10.064-.123.883 3.346 6.919 2.323 7.759-.957.789-1.714 3.372-3.495 3.558-.514.052-.4-2.302-1.104-2.181-.702.118-.142 4.291.338 4.445 1.709.566 3.396-2.843 3.861-2.736.465.106-.341 4.572-1.491 4.675-.661.058-1.596-1.356-1.831-1.176-.239.18.611 3.054 1.824 3.089 1.21.036 4.522-4.542 4.49-6.688-.03-2.143-3.024-10.036-2.756-11.149.165-.698 2.992-3.287 5.06-5.105-.618 3.923-1.009 7.298-.764 8.656.587 3.28 8.322 17.345 8.993 17.17.671-.18-1.053-4.299 1.746-3.879 2.799.421 2.54 9.23 3.541 8.716 1.003-.515 8.182-21.101 8.538-26.806.222-3.561-1.786-8.345-2.6-15.132 2.294 2.357 8.69 9.021 8.846 10.113.194 1.332-4.154 10.249-4.424 12.756-.264 2.508 3.118 8.222 4.543 8.311 1.424.09 2.727-3.182 2.467-3.419-.257-.238-1.504 1.318-2.274 1.177-1.33-.241-1.798-5.556-1.243-5.63.557-.078 2.164 4.094 4.229 3.615.58-.13 1.685-4.953.874-5.167zM25.421 44.4c-.182-.619-1.348-1.723-1.632-1.606-.393.167-.91 2.167-.803 2.769-.671.135-3.841.496-4.532.512-.001-.714-.983-2.544-1.32-2.532-.394.02-1.251 1.434-1.312 2.002-3.37-1.105-3.838-7.465-1.656-9.444.1.669 1.518 5.463 2.017 5.453.419-.006 1.043-2.188.941-2.973 1.421-.199 4.045-.5 5.476-.622.088.695 1.138 2.655 1.7 2.683.625.035.702-5.001.613-5.765 2.533.87 3.423 7.65.508 9.523zm1.232-12.144c-.236.035-1.031-.777-1.549-1.343-2.105 1.706-5.666 1.715-7.728.011-.352.466-1.349 1.739-1.845 1.811-.612.09-1.27-1.264-1.288-1.668-.02-.364 1.502-1.925 1.752-2.181a4.778 4.778 0 01-.21-1.079c-.123-1.629.125-2.94.617-3.963-.727-.504-1.663-1.224-1.837-1.707-.289-.813.935-1.965 1.357-2.069.307-.072 1.733 1.039 2.468 1.638 1.835-1.024 4.273-.748 6.049.614l-.15-.202s1.364-1.903 1.999-1.947c.639-.039 1.378 1.461 1.411 1.89.028.368-1.271 1.692-1.683 2.095.379.687.64 1.476.744 2.367.096.843.024 1.591-.186 2.248.491.432 1.46 1.338 1.527 1.854.099.698-1.095 1.573-1.448 1.631z"/></svg>