<svg viewBox="452.671 54.811 59.375 67.059" xmlns="http://www.w3.org/2000/svg"><path d="M477.086 118.295c-1.146-.132-2.168.557-2.28 1.537-.114.982.473 1.855 1.871 2.016 1.398.161 2.168-.558 2.28-1.537.113-.983-.725-1.885-1.871-2.016"/><path d="M475.161 108.015c-.521-.178-1.588 3.801 3.478 6.672 5.064 2.872 7.932-.087 7.51-.443-.421-.355-10.465-6.05-10.988-6.229"/><path d="M502.881 98.052l.062-.097c7.602-11.925 14.076-28.642 3.738-38.21-15.727-14.558-42.752 7.984-53.928 5.469-.909 2.129 5.713 15.26 21.444 24.988 1.883 1.668 2.508 3.607 2.54 5.463l-.001.051c-1.261.236-6.302 1.346-8.295 4.355-1.511 2.278-.514 8.972 2.394 8.007 2.99-.987.151-4.354 1.23-6.397 1.333-2.524 3.343-2.388 4.065-2.242-.008.021-.014.045-.021.068-.447 1.447-.988 2.597-1.069 3.155-.235 1.599 12.62 10.786 16.202 9.105.488-.229 1.207-.787 2.087-1.619.488.429.969 1.31.281 3.031-.745 1.869-4.551 1.965-3.391 4.525 1.128 2.491 6.22.122 6.859-2.167.804-2.87-.773-6.68-1.341-7.909.063-.07.126-.141.189-.214 1.619-1.85 3.454-4.192 5.293-6.858 2.642.386 4.706 5.455 2.512 7.662-1.487 1.494-4.82.271-4.975 3.072-.148 2.729 4.902 1.821 6.911.337 5.918-4.371-.082-12.283-2.786-13.575zm-9.325-27.004c.215-2.458 4.564-3.295 4.428-.149-.096 2.163-4.644 2.61-4.428.149zm-4.335.432c2.033 4.423-6.063 7.018-7.684 3.055-2.362-5.762 5.653-7.479 7.684-3.055zm4.105 14.509c-12.98 2.08-21.261-11.672-16.272-14.047 1.258-.263 1.562 1.867 2.174 3.829-.312.259-1.27 1.152-.756 1.75.37.434 1.016.169 1.469-.103 1.157 1.333 2.421 2.336 3.74 3.042-.095.537-.241 1.839.49 1.971.582.103.946-.672 1.132-1.253 2.255.8 4.595.834 6.773.299.134.482.534 1.622 1.25 1.428.778-.209.52-1.594.436-1.968a13.347 13.347 0 004.605-3.06c.315.294 1.239 1.065 1.768.508.596-.634-.475-1.72-.62-1.861a10.903 10.903 0 001.478-2.762c.419.087 1.4.206 1.565-.509.179-.783-.933-1.148-1.244-1.232.087-1.676-.192-3.297.97-3.165 4.117.472 4.021 15.049-8.958 17.133z"/></svg>