<svg viewBox="0 0 77.9 76.7" xmlns="http://www.w3.org/2000/svg"><path d="M39.365 43.407a9.813 9.813 0 01-9.826-9.827 9.82 9.82 0 019.826-9.825c5.426 0 9.827 4.401 9.827 9.825a9.821 9.821 0 01-9.827 9.827zM32.49 33.101c.732.2 1.462-.213 1.662-.957.572-2.1 2.382-3.643 4.548-3.908a1.368 1.368 0 001.184-1.516 1.39 1.39 0 00-1.515-1.183c-3.258.4-5.945 2.74-6.835 5.904a1.36 1.36 0 00.956 1.66zm45.241 6.974c-1.496 1.137-3.702-2.984-4.525-1.682-.819 1.299 3.748 13.014.597 12.452-3.155-.559-2.9-3.644-4.887-2.557-1.982 1.088 4.424 17.005-.132 18.194-4.554 1.193-4.593-3.895-7.25-2.976-2.658.924-1.203 10.152-3.565 9.572-2.366-.578-2.63-3.865-4.448-3.455-1.821.413-3.864 6-5.291 5.754-1.429-.244-.771-4.375-2.238-4.522-1.358-.138-3.634 5.957-5.47 5.797-1.813.307-4.56-5.589-5.906-5.348-1.452.263-.471 4.329-1.874 4.688-1.405.355-3.882-5.05-5.727-5.32-1.846-.265-1.854 3.033-4.164 3.796-2.306.766-1.586-8.553-4.31-9.261-2.725-.71-2.359 4.369-6.99 3.543-4.634-.83.491-17.203-1.573-18.129-2.064-.928-1.566 2.128-4.667 2.934-3.098.807.529-11.229-.391-12.462-.921-1.232-2.796 3.048-4.378 2.035-1.579-1.014 4.619-13.461 3.724-15.946-.895-2.485-5.054 7.122-4.134 1.443 1.195-7.383 7.261-15.782 14.03-17.884-.35-1.067-.64-2.4-.632-3.868.028-4.111 3.074-6.973 4.2-6.87 1.128.103-.646 4.218.171 7.1.212.753.648 1.597 1.171 2.428 9.152-1.734 14.705-1.894 18.713-2.145 4.089-.256 10.67-.351 19.266 1.865.113-.78.154-1.523.085-2.157-.325-2.981-3.518-6.122-2.512-6.642 1.003-.521 4.906.983 6.476 4.782.9 2.184.954 4.33.879 5.57 6.963 2.641 13.157 7.156 15.018 14.778 1.364 5.59-3.54-3.658-4.236-1.11-.699 2.55 6.468 14.469 4.97 15.603zm-9.777-6.495c-9.468-15.796-29.959-20.901-45.755-11.435A33.63 33.63 0 0010.765 33.58c9.467 15.796 29.971 20.902 45.755 11.436A33.183 33.183 0 0067.954 33.58z"/></svg>