<svg viewBox="245.05 494.557 77.937 76.663" xmlns="http://www.w3.org/2000/svg"><path d="M293.54 543.906c-2.115-.932-1.774-4.377-5.286-4.848-1.984-.268-3.029.332-3.542.836-.511-.504-1.556-1.104-3.543-.836-3.509.471-3.17 3.916-5.283 4.848-1.827.807-4.039 0-4.039 0s2.176 4.288 6.65 3.852c4.018-.389 5.876-2.679 6.215-3.144.338.465 2.196 2.755 6.217 3.144 4.473.436 6.648-3.852 6.648-3.852s-2.212.807-4.037 0"/><path d="M317.811 519.029c.696-2.548 5.6 6.7 4.236 1.11-1.861-7.622-8.055-12.137-15.018-14.778.075-1.24.021-3.386-.879-5.57-1.57-3.799-5.473-5.303-6.476-4.782-1.006.52 2.187 3.661 2.512 6.642.069.634.028 1.377-.085 2.157-8.596-2.216-15.177-2.121-19.266-1.865-4.008.251-9.561.411-18.713 2.145-.523-.831-.959-1.675-1.171-2.428-.817-2.882.957-6.997-.171-7.1-1.126-.103-4.172 2.759-4.2 6.87-.008 1.468.282 2.801.632 3.868-6.769 2.102-12.835 10.501-14.03 17.884-.92 5.679 3.239-3.928 4.134-1.443.895 2.485-5.303 14.932-3.724 15.946 1.582 1.013 3.457-3.267 4.378-2.035.92 1.233-2.707 13.269.391 12.462 3.101-.806 2.603-3.862 4.667-2.934 2.064.926-3.061 17.299 1.573 18.129 4.631.826 4.265-4.253 6.99-3.543 2.724.708 2.004 10.027 4.31 9.261 2.31-.763 2.318-4.061 4.164-3.796 1.845.27 4.322 5.675 5.727 5.32 1.403-.359.422-4.425 1.874-4.688 1.346-.241 4.093 5.655 5.906 5.348 1.836.16 4.112-5.935 5.47-5.797 1.467.147.809 4.278 2.238 4.522 1.427.246 3.47-5.341 5.291-5.754 1.818-.41 2.082 2.877 4.448 3.455 2.362.58.907-8.648 3.565-9.572 2.657-.919 2.696 4.169 7.25 2.976 4.556-1.189-1.85-17.106.132-18.194 1.987-1.087 1.732 1.998 4.887 2.557 3.151.562-1.416-11.153-.597-12.452.823-1.302 3.029 2.819 4.525 1.682 1.498-1.134-5.669-13.053-4.97-15.603zm-52.086 18.525c-.404-28.528 35.968-25.377 36.392-.511.381 22.29-36.116 20.121-36.392.511z"/><path d="M275.231 536.504c1.485.041 2.383-.907 2.534-2.465.156-1.558-.549-2.55-2.036-2.591-1.481-.039-2.376.907-2.533 2.466-.154 1.556.552 2.549 2.035 2.59zm1.073-2.452c-.118 1.166-1.747.892-1.658-.046.123-1.222 1.775-1.119 1.658.046z"/><path d="M284.701 536.099c1.145-.015 1.732-.778 1.674-1.984-.061-1.21-.721-1.951-1.869-1.936-1.151.014-1.734.778-1.677 1.983.062 1.206.721 1.951 1.872 1.937zm.651-1.928c.047.942-1.305.777-1.346.016-.047-.988 1.297-.96 1.346-.016z"/><path d="M292.728 536.658c1.485-.015 2.258-.993 2.206-2.552-.05-1.559-.883-2.522-2.368-2.509-1.487.014-2.258.993-2.206 2.549.046 1.564.885 2.525 2.368 2.512zm.75-2.485c.038 1.165-1.627.952-1.661.012-.035-1.222 1.624-1.179 1.661-.012z"/></svg>