<svg viewBox="212.277 276.767 44.76 68.953" xmlns="http://www.w3.org/2000/svg"><path d="M239.525 294.659c0 1.795 1.006 2.968 2.875 2.968 1.87 0 2.873-1.173 2.873-2.968 0-1.794-1.003-2.967-2.873-2.967-1.869 0-2.875 1.173-2.875 2.967"/><path d="M228.24 294.659c0 1.565.877 2.587 2.508 2.587 1.629 0 2.505-1.022 2.505-2.587 0-1.565-.876-2.586-2.505-2.586-1.631 0-2.508 1.021-2.508 2.586"/><path d="M255.705 321.523c.559-.49 1.864-18.044 1.096-18.554-.77-.515-5.176-.374-5.618.185-.444.558.022 12.122-.56 12.518-.583.396-11.096.957-11.772.047-.675-.909-.63-3.286-.07-3.823.559-.538 7.902-.164 8.485-.606.584-.442 1.445-9.349.654-10.023-.793-.677-23.219-.724-23.848-1.54-.629-.816-.909-9.745 0-10.373.909-.629 23.473.49 24.104-.279.628-.769 1.187-11.027.162-11.772-1.026-.746-34.104-.652-34.943-.094-.839.56-.629 31.842.21 32.588.84.747 8.811.909 9.279 1.655.465.747.325 2.868-.025 3.195-.348.326-9.464-.349-10.186.209-.722.56-.338 15.538.204 16.196.55.668 4.633.682 5.192.123.56-.56-.15-8.952.572-9.464.722-.515 3.24-.468 3.589 0 .349.466 1.165 8.25 1.096 9.206-.07.956.397 7.344-.117 7.694-.514.348-7.972-.211-8.345.138-.373.351-1.165 5.781-.63 6.341.537.559 13.848.887 14.594.374.745-.514.162-12.099.652-12.729.49-.629 12.424-.583 12.915-.046.489.536.442 11.446 1.281 12.192.839.746 5.128.768 5.687.209.561-.56.444-15.922 0-16.667-.443-.746-9.929-2.005-10.209-2.518-.28-.512-.326-3.542.163-3.869.49-.325 15.828-.022 16.388-.513"/></svg>